<?xml version="1.0" encoding="UTF-8" standalone="no"?>
<!DOCTYPE svg PUBLIC "-//W3C//DTD SVG 1.1//EN"
 "http://www.w3.org/Graphics/SVG/1.1/DTD/svg11.dtd">
<!-- Generated by graphviz version 2.40.1 (20161225.0304)
 -->
<!-- Title: %0 Pages: 1 -->
<svg width="579pt" height="332pt"
 viewBox="0.00 0.00 579.00 332.00" xmlns="http://www.w3.org/2000/svg" xmlns:xlink="http://www.w3.org/1999/xlink">
<g id="graph0" class="graph" transform="scale(1 1) rotate(0) translate(4 328)">
<title>%0</title>
<polygon fill="#ffffff" stroke="transparent" points="-4,4 -4,-328 575,-328 575,4 -4,4"/>
<!-- NUM_1 -->
<g id="node1" class="node">
<title>NUM_1</title>
<ellipse fill="none" stroke="#000000" cx="27" cy="-234" rx="27" ry="18"/>
<text text-anchor="middle" x="27" y="-229.8" font-family="Times,serif" font-size="14.00" fill="#000000">1</text>
</g>
<!-- PLUS_1 -->
<g id="node2" class="node">
<title>PLUS_1</title>
<ellipse fill="none" stroke="#000000" cx="71" cy="-162" rx="27" ry="18"/>
<text text-anchor="middle" x="71" y="-157.8" font-family="Times,serif" font-size="14.00" fill="#000000">+</text>
</g>
<!-- NUM_2 -->
<g id="node3" class="node">
<title>NUM_2</title>
<ellipse fill="none" stroke="#000000" cx="160" cy="-90" rx="27" ry="18"/>
<text text-anchor="middle" x="160" y="-85.8" font-family="Times,serif" font-size="14.00" fill="#000000">2</text>
</g>
<!-- MUL -->
<g id="node4" class="node">
<title>MUL</title>
<ellipse fill="none" stroke="#000000" cx="213" cy="-18" rx="27" ry="18"/>
<text text-anchor="middle" x="213" y="-13.8" font-family="Times,serif" font-size="14.00" fill="#000000">*</text>
</g>
<!-- NUM_3 -->
<g id="node5" class="node">
<title>NUM_3</title>
<ellipse fill="none" stroke="#000000" cx="285" cy="-18" rx="27" ry="18"/>
<text text-anchor="middle" x="285" y="-13.8" font-family="Times,serif" font-size="14.00" fill="#000000">3</text>
</g>
<!-- L1 -->
<g id="node6" class="node">
<title>L1</title>
<ellipse fill="none" stroke="#000000" cx="72" cy="-306" rx="44.0968" ry="18"/>
<text text-anchor="middle" x="72" y="-301.8" font-family="Times,serif" font-size="14.00" fill="#000000">ASTList</text>
</g>
<!-- L1&#45;&#45;NUM_1 -->
<g id="edge4" class="edge">
<title>L1&#45;&#45;NUM_1</title>
<path fill="none" stroke="#000000" d="M60.8764,-288.2022C53.7971,-276.8753 44.6787,-262.2859 37.6858,-251.0972"/>
</g>
<!-- L2 -->
<g id="node7" class="node">
<title>L2</title>
<ellipse fill="none" stroke="#000000" cx="116" cy="-234" rx="44.0968" ry="18"/>
<text text-anchor="middle" x="116" y="-229.8" font-family="Times,serif" font-size="14.00" fill="#000000">ASTList</text>
</g>
<!-- L1&#45;&#45;L2 -->
<g id="edge1" class="edge">
<title>L1&#45;&#45;L2</title>
<path fill="none" stroke="#000000" d="M82.8764,-288.2022C89.6966,-277.0419 98.4523,-262.7143 105.2487,-251.593"/>
</g>
<!-- L2&#45;&#45;PLUS_1 -->
<g id="edge5" class="edge">
<title>L2&#45;&#45;PLUS_1</title>
<path fill="none" stroke="#000000" d="M104.8764,-216.2022C97.7971,-204.8753 88.6787,-190.2859 81.6858,-179.0972"/>
</g>
<!-- L3 -->
<g id="node8" class="node">
<title>L3</title>
<ellipse fill="none" stroke="#000000" cx="160" cy="-162" rx="44.0968" ry="18"/>
<text text-anchor="middle" x="160" y="-157.8" font-family="Times,serif" font-size="14.00" fill="#000000">ASTList</text>
</g>
<!-- L2&#45;&#45;L3 -->
<g id="edge2" class="edge">
<title>L2&#45;&#45;L3</title>
<path fill="none" stroke="#000000" d="M126.8764,-216.2022C133.6966,-205.0419 142.4523,-190.7143 149.2487,-179.593"/>
</g>
<!-- L3&#45;&#45;NUM_2 -->
<g id="edge6" class="edge">
<title>L3&#45;&#45;NUM_2</title>
<path fill="none" stroke="#000000" d="M160,-143.8314C160,-133 160,-119.2876 160,-108.4133"/>
</g>
<!-- L4 -->
<g id="node9" class="node">
<title>L4</title>
<ellipse fill="none" stroke="#000000" cx="249" cy="-90" rx="44.0968" ry="18"/>
<text text-anchor="middle" x="249" y="-85.8" font-family="Times,serif" font-size="14.00" fill="#000000">ASTList</text>
</g>
<!-- L3&#45;&#45;L4 -->
<g id="edge3" class="edge">
<title>L3&#45;&#45;L4</title>
<path fill="none" stroke="#000000" d="M180.1955,-145.6621C194.7609,-133.8788 214.3374,-118.0416 228.8844,-106.2733"/>
</g>
<!-- L4&#45;&#45;MUL -->
<g id="edge7" class="edge">
<title>L4&#45;&#45;MUL</title>
<path fill="none" stroke="#000000" d="M240.1011,-72.2022C234.4377,-60.8753 227.143,-46.2859 221.5486,-35.0972"/>
</g>
<!-- L4&#45;&#45;NUM_3 -->
<g id="edge8" class="edge">
<title>L4&#45;&#45;NUM_3</title>
<path fill="none" stroke="#000000" d="M257.8989,-72.2022C263.5623,-60.8753 270.857,-46.2859 276.4514,-35.0972"/>
</g>
<!-- _NUM_1 -->
<g id="node10" class="node">
<title>_NUM_1</title>
<ellipse fill="none" stroke="#000000" cx="285" cy="-162" rx="27" ry="18"/>
<text text-anchor="middle" x="285" y="-157.8" font-family="Times,serif" font-size="14.00" fill="#000000">1</text>
</g>
<!-- _PLUS_1 -->
<g id="node11" class="node">
<title>_PLUS_1</title>
<ellipse fill="none" stroke="#000000" cx="472" cy="-162" rx="27" ry="18"/>
<text text-anchor="middle" x="472" y="-157.8" font-family="Times,serif" font-size="14.00" fill="#000000">+</text>
</g>
<!-- _MUL -->
<g id="node12" class="node">
<title>_MUL</title>
<ellipse fill="none" stroke="#000000" cx="338" cy="-90" rx="27" ry="18"/>
<text text-anchor="middle" x="338" y="-85.8" font-family="Times,serif" font-size="14.00" fill="#000000">*</text>
</g>
<!-- _NUM_2 -->
<g id="node13" class="node">
<title>_NUM_2</title>
<ellipse fill="none" stroke="#000000" cx="410" cy="-90" rx="27" ry="18"/>
<text text-anchor="middle" x="410" y="-85.8" font-family="Times,serif" font-size="14.00" fill="#000000">2</text>
</g>
<!-- _NUM_3 -->
<g id="node14" class="node">
<title>_NUM_3</title>
<ellipse fill="none" stroke="#000000" cx="544" cy="-162" rx="27" ry="18"/>
<text text-anchor="middle" x="544" y="-157.8" font-family="Times,serif" font-size="14.00" fill="#000000">3</text>
</g>
<!-- _L1 -->
<g id="node15" class="node">
<title>_L1</title>
<ellipse fill="none" stroke="#000000" cx="422" cy="-306" rx="44.0968" ry="18"/>
<text text-anchor="middle" x="422" y="-301.8" font-family="Times,serif" font-size="14.00" fill="#000000">ASTList</text>
</g>
<!-- _L2 -->
<g id="node16" class="node">
<title>_L2</title>
<ellipse fill="none" stroke="#000000" cx="369" cy="-234" rx="44.0968" ry="18"/>
<text text-anchor="middle" x="369" y="-229.8" font-family="Times,serif" font-size="14.00" fill="#000000">ASTList</text>
</g>
<!-- _L1&#45;&#45;_L2 -->
<g id="edge9" class="edge">
<title>_L1&#45;&#45;_L2</title>
<path fill="none" stroke="#000000" d="M409.1702,-288.5708C400.8373,-277.2506 390.021,-262.5568 381.7117,-251.2687"/>
</g>
<!-- _L3 -->
<g id="node17" class="node">
<title>_L3</title>
<ellipse fill="none" stroke="#000000" cx="476" cy="-234" rx="44.0968" ry="18"/>
<text text-anchor="middle" x="476" y="-229.8" font-family="Times,serif" font-size="14.00" fill="#000000">ASTList</text>
</g>
<!-- _L1&#45;&#45;_L3 -->
<g id="edge10" class="edge">
<title>_L1&#45;&#45;_L3</title>
<path fill="none" stroke="#000000" d="M435.0719,-288.5708C443.562,-277.2506 454.5824,-262.5568 463.0485,-251.2687"/>
</g>
<!-- _L2&#45;&#45;_NUM_1 -->
<g id="edge12" class="edge">
<title>_L2&#45;&#45;_NUM_1</title>
<path fill="none" stroke="#000000" d="M349.9391,-217.6621C335.4175,-205.215 315.6183,-188.2443 301.7118,-176.3244"/>
</g>
<!-- _L4 -->
<g id="node18" class="node">
<title>_L4</title>
<ellipse fill="none" stroke="#000000" cx="374" cy="-162" rx="44.0968" ry="18"/>
<text text-anchor="middle" x="374" y="-157.8" font-family="Times,serif" font-size="14.00" fill="#000000">ASTList</text>
</g>
<!-- _L2&#45;&#45;_L4 -->
<g id="edge11" class="edge">
<title>_L2&#45;&#45;_L4</title>
<path fill="none" stroke="#000000" d="M370.2617,-215.8314C371.0139,-205 371.9661,-191.2876 372.7213,-180.4133"/>
</g>
<!-- _L3&#45;&#45;_PLUS_1 -->
<g id="edge13" class="edge">
<title>_L3&#45;&#45;_PLUS_1</title>
<path fill="none" stroke="#000000" d="M474.9906,-215.8314C474.3889,-205 473.6271,-191.2876 473.023,-180.4133"/>
</g>
<!-- _L3&#45;&#45;_NUM_3 -->
<g id="edge14" class="edge">
<title>_L3&#45;&#45;_NUM_3</title>
<path fill="none" stroke="#000000" d="M492.1151,-216.937C503.4261,-204.9606 518.4289,-189.0752 529.3914,-177.4679"/>
</g>
<!-- _L4&#45;&#45;_MUL -->
<g id="edge15" class="edge">
<title>_L4&#45;&#45;_MUL</title>
<path fill="none" stroke="#000000" d="M365.1011,-144.2022C359.4377,-132.8753 352.143,-118.2859 346.5486,-107.0972"/>
</g>
<!-- _L4&#45;&#45;_NUM_2 -->
<g id="edge16" class="edge">
<title>_L4&#45;&#45;_NUM_2</title>
<path fill="none" stroke="#000000" d="M382.8989,-144.2022C388.5623,-132.8753 395.857,-118.2859 401.4514,-107.0972"/>
</g>
</g>
</svg>
