<?xml version="1.0" encoding="UTF-8" standalone="no"?>
<!DOCTYPE svg PUBLIC "-//W3C//DTD SVG 1.1//EN"
 "http://www.w3.org/Graphics/SVG/1.1/DTD/svg11.dtd">
<!-- Generated by graphviz version 2.40.1 (20161225.0304)
 -->
<!-- Title: %0 Pages: 1 -->
<svg width="566pt" height="260pt"
 viewBox="0.00 0.00 566.00 260.00" xmlns="http://www.w3.org/2000/svg" xmlns:xlink="http://www.w3.org/1999/xlink">
<g id="graph0" class="graph" transform="scale(1 1) rotate(0) translate(4 256)">
<title>%0</title>
<polygon fill="#ffffff" stroke="transparent" points="-4,4 -4,-256 562,-256 562,4 -4,4"/>
<!-- Expr -->
<g id="node1" class="node">
<title>Expr</title>
<ellipse fill="none" stroke="#000000" cx="233" cy="-234" rx="29.6166" ry="18"/>
<text text-anchor="middle" x="233" y="-229.8" font-family="Times,serif" font-size="14.00" fill="#000000">Expr</text>
</g>
<!-- NUM_1 -->
<g id="node2" class="node">
<title>NUM_1</title>
<ellipse fill="none" stroke="#000000" cx="189" cy="-162" rx="27" ry="18"/>
<text text-anchor="middle" x="189" y="-157.8" font-family="Times,serif" font-size="14.00" fill="#000000">1</text>
</g>
<!-- Expr&#45;&#45;NUM_1 -->
<g id="edge1" class="edge">
<title>Expr&#45;&#45;NUM_1</title>
<path fill="none" stroke="#000000" d="M222.5726,-216.937C215.5587,-205.4596 206.3508,-190.3922 199.3525,-178.9405"/>
</g>
<!-- L1 -->
<g id="node11" class="node">
<title>L1</title>
<ellipse fill="none" stroke="#000000" cx="278" cy="-162" rx="44.0968" ry="18"/>
<text text-anchor="middle" x="278" y="-157.8" font-family="Times,serif" font-size="14.00" fill="#000000">ASTList</text>
</g>
<!-- Expr&#45;&#45;L1 -->
<g id="edge2" class="edge">
<title>Expr&#45;&#45;L1</title>
<path fill="none" stroke="#000000" d="M243.6644,-216.937C250.6818,-205.7091 259.8465,-191.0456 266.9422,-179.6924"/>
</g>
<!-- PLUS_1 -->
<g id="node3" class="node">
<title>PLUS_1</title>
<ellipse fill="none" stroke="#000000" cx="27" cy="-18" rx="27" ry="18"/>
<text text-anchor="middle" x="27" y="-13.8" font-family="Times,serif" font-size="14.00" fill="#000000">+</text>
</g>
<!-- NUM_2 -->
<g id="node4" class="node">
<title>NUM_2</title>
<ellipse fill="none" stroke="#000000" cx="99" cy="-18" rx="27" ry="18"/>
<text text-anchor="middle" x="99" y="-13.8" font-family="Times,serif" font-size="14.00" fill="#000000">2</text>
</g>
<!-- PLUS_2 -->
<g id="node5" class="node">
<title>PLUS_2</title>
<ellipse fill="none" stroke="#000000" cx="315" cy="-18" rx="27" ry="18"/>
<text text-anchor="middle" x="315" y="-13.8" font-family="Times,serif" font-size="14.00" fill="#000000">+</text>
</g>
<!-- NUM_3 -->
<g id="node6" class="node">
<title>NUM_3</title>
<ellipse fill="none" stroke="#000000" cx="171" cy="-18" rx="27" ry="18"/>
<text text-anchor="middle" x="171" y="-13.8" font-family="Times,serif" font-size="14.00" fill="#000000">3</text>
</g>
<!-- MUL -->
<g id="node7" class="node">
<title>MUL</title>
<ellipse fill="none" stroke="#000000" cx="243" cy="-18" rx="27" ry="18"/>
<text text-anchor="middle" x="243" y="-13.8" font-family="Times,serif" font-size="14.00" fill="#000000">*</text>
</g>
<!-- NUM_4 -->
<g id="node8" class="node">
<title>NUM_4</title>
<ellipse fill="none" stroke="#000000" cx="387" cy="-18" rx="27" ry="18"/>
<text text-anchor="middle" x="387" y="-13.8" font-family="Times,serif" font-size="14.00" fill="#000000">4</text>
</g>
<!-- DIV -->
<g id="node9" class="node">
<title>DIV</title>
<ellipse fill="none" stroke="#000000" cx="459" cy="-18" rx="27" ry="18"/>
<text text-anchor="middle" x="459" y="-13.8" font-family="Times,serif" font-size="14.00" fill="#000000">/</text>
</g>
<!-- NUM_5 -->
<g id="node10" class="node">
<title>NUM_5</title>
<ellipse fill="none" stroke="#000000" cx="531" cy="-18" rx="27" ry="18"/>
<text text-anchor="middle" x="531" y="-13.8" font-family="Times,serif" font-size="14.00" fill="#000000">5</text>
</g>
<!-- L2 -->
<g id="node12" class="node">
<title>L2</title>
<ellipse fill="none" stroke="#000000" cx="99" cy="-90" rx="44.0968" ry="18"/>
<text text-anchor="middle" x="99" y="-85.8" font-family="Times,serif" font-size="14.00" fill="#000000">ASTList</text>
</g>
<!-- L1&#45;&#45;L2 -->
<g id="edge3" class="edge">
<title>L1&#45;&#45;L2</title>
<path fill="none" stroke="#000000" d="M246.4104,-149.2936C213.7915,-136.1731 163.1876,-115.8185 130.5743,-102.7003"/>
</g>
<!-- L3 -->
<g id="node13" class="node">
<title>L3</title>
<ellipse fill="none" stroke="#000000" cx="225" cy="-90" rx="44.0968" ry="18"/>
<text text-anchor="middle" x="225" y="-85.8" font-family="Times,serif" font-size="14.00" fill="#000000">ASTList</text>
</g>
<!-- L1&#45;&#45;L3 -->
<g id="edge4" class="edge">
<title>L1&#45;&#45;L3</title>
<path fill="none" stroke="#000000" d="M265.1702,-144.5708C256.8373,-133.2506 246.021,-118.5568 237.7117,-107.2687"/>
</g>
<!-- L4 -->
<g id="node14" class="node">
<title>L4</title>
<ellipse fill="none" stroke="#000000" cx="332" cy="-90" rx="44.0968" ry="18"/>
<text text-anchor="middle" x="332" y="-85.8" font-family="Times,serif" font-size="14.00" fill="#000000">ASTList</text>
</g>
<!-- L1&#45;&#45;L4 -->
<g id="edge5" class="edge">
<title>L1&#45;&#45;L4</title>
<path fill="none" stroke="#000000" d="M291.0719,-144.5708C299.562,-133.2506 310.5824,-118.5568 319.0485,-107.2687"/>
</g>
<!-- L5 -->
<g id="node15" class="node">
<title>L5</title>
<ellipse fill="none" stroke="#000000" cx="459" cy="-90" rx="44.0968" ry="18"/>
<text text-anchor="middle" x="459" y="-85.8" font-family="Times,serif" font-size="14.00" fill="#000000">ASTList</text>
</g>
<!-- L1&#45;&#45;L5 -->
<g id="edge6" class="edge">
<title>L1&#45;&#45;L5</title>
<path fill="none" stroke="#000000" d="M309.9425,-149.2936C342.9259,-136.1731 394.0952,-115.8185 427.0729,-102.7003"/>
</g>
<!-- L2&#45;&#45;PLUS_1 -->
<g id="edge7" class="edge">
<title>L2&#45;&#45;PLUS_1</title>
<path fill="none" stroke="#000000" d="M82.3008,-73.3008C70.1705,-61.1705 53.8894,-44.8894 42.1374,-33.1374"/>
</g>
<!-- L2&#45;&#45;NUM_2 -->
<g id="edge8" class="edge">
<title>L2&#45;&#45;NUM_2</title>
<path fill="none" stroke="#000000" d="M99,-71.8314C99,-61 99,-47.2876 99,-36.4133"/>
</g>
<!-- L3&#45;&#45;NUM_3 -->
<g id="edge10" class="edge">
<title>L3&#45;&#45;NUM_3</title>
<path fill="none" stroke="#000000" d="M211.9281,-72.5708C203.1883,-60.9177 191.7672,-45.6895 183.2113,-34.2817"/>
</g>
<!-- L3&#45;&#45;MUL -->
<g id="edge9" class="edge">
<title>L3&#45;&#45;MUL</title>
<path fill="none" stroke="#000000" d="M229.5422,-71.8314C232.2917,-60.8334 235.7838,-46.865 238.5216,-35.9134"/>
</g>
<!-- L4&#45;&#45;PLUS_2 -->
<g id="edge11" class="edge">
<title>L4&#45;&#45;PLUS_2</title>
<path fill="none" stroke="#000000" d="M327.7102,-71.8314C325.1134,-60.8334 321.8153,-46.865 319.2296,-35.9134"/>
</g>
<!-- L4&#45;&#45;NUM_4 -->
<g id="edge12" class="edge">
<title>L4&#45;&#45;NUM_4</title>
<path fill="none" stroke="#000000" d="M345.314,-72.5708C354.2157,-60.9177 365.8483,-45.6895 374.5626,-34.2817"/>
</g>
<!-- L5&#45;&#45;DIV -->
<g id="edge13" class="edge">
<title>L5&#45;&#45;DIV</title>
<path fill="none" stroke="#000000" d="M459,-71.8314C459,-61 459,-47.2876 459,-36.4133"/>
</g>
<!-- L5&#45;&#45;NUM_5 -->
<g id="edge14" class="edge">
<title>L5&#45;&#45;NUM_5</title>
<path fill="none" stroke="#000000" d="M475.6992,-73.3008C487.8295,-61.1705 504.1106,-44.8894 515.8626,-33.1374"/>
</g>
</g>
</svg>
