<svg xmlns="http://www.w3.org/2000/svg" xmlns:xlink="http://www.w3.org/1999/xlink" version="1.1" width="731px" height="473px" viewBox="-0.5 -0.5 731 473" content="&lt;mxfile&gt;&lt;diagram id=&quot;hr7Ch_WrsO__sEEtlqWu&quot; name=&quot;Page-1&quot;&gt;7VvbcqM4EP0aPSYFkgDpEdtkZmt2kqlkq2b3UQFhU8HGi3Hi7NevBAIbRBInseVLJTWVkVoXxDndqLulADScrr7lbD75mUU8BdCKVgCNAISOZ4nfUvBcCbCDK8E4T6JKZK8Fd8l/XAnVuPEyifii1bHIsrRI5m1hmM1mPCxaMpbn2VO7W5yl7afO2ZhrgruQpbr0dxIVk0pKHGst/86T8aR+sm2plimrOyvBYsKi7GlDhAKAhnmWFVVpuhryVGJX41KNu3qhtVlYzmfFNgNgNeCRpUv1bgC6qRg6iDMxg1hg8aze2v13mdUNF4uSE190gGS+WjeK0rj8P3AAtQAJQOABfwD8q3pesZZqatWxgqF5Ciz4SsonxTQVAlsUWZqMZ6IcinfiuRA88rxIBBu+apgmUSSHD3Iu1sXuy6ksUZ9nyawouXYGwBnJuZZFVq29nHpR5NkDH2ZpJuYdzbKZnCVO0rQjWjzwIpyoQXL5V2yapFJ7v/P0kcvVNO8iV8dXL/JhNywL6+DZlBf5s+iiBtSWoQzDRk5Vf1qrWd1lsqFhSMmYUuxxM/Gae1FQ9PerAtJVQZBIPEBcWfCxLEtaB2AwUhLqtgpkCIhzGoxKEtWHBRKTDCPsdCi2NIpt0sMx3gHHuIdjAohg1JYFYaX+6Iu/V/lznY6Jujp/fSa6C/ocjb67SZJnGmNPk6Tgd3MWyvqT2ILb9G2H1SboAKI4jmEYagyJlsi9dx33k+gqNKFjDk0bacDxSOzzqqoUbQM3vkqKv6UiXzqq9s9Gy2ildLysPKvKe/RSPv113MRis2Ueql6ecn1YPuaqF+1HN+cpK5LH9uyfws49P+xsyxB4nmbGtzxKFudgxmoAbX8jm7oJq/ZOXDOJrpnQlGYSTTN/sPiB7Uczd6BnjaNUK1qPM7U3RSMnrmi05xP4Atw7VzSqezLzPJmNhWyYZsvoaDUOtxUOEYMKR09c4er0zUE0rn54J74dUDCoYtcrQG2ZrRgMy2jWA34ZGR2rItqH1ET7ZfMtsXRlHiBwgW+Bgf6ZPBYIO14KNhh7NOZxqrYMe2zZVPAB4RmCZyz6gPqH8CZnoYDuWO206+Uhy6Ch9qTMNOWbRb48VVjrXsQWEx4paDYgk/JfrCh4Pisl0EJNKFafJMBPZrfeVkYd6A0gnR4ga9nWuqie8Etm+9Y8drPbDuwQVNmIGrXmSJ/IbU9kO52JKsPSJirJbl57O/71nNsX/x/k37V2xL9DzfGvJ2v2GBIfJFlzyCAamfCD9mtNna29J32DTG3tyERG++BoQkNo9mTDbjkLizMyfdTZSKFBzwrpfuhfN6ObMoSkwLdlaC6icDoAflAGlRSQ0cZ1giN1VhHsQGowLkf64ftp2z+CPfaPTX1NoaagP4Pb66PVPIwPqHl9NwscabDUL6+IBMCH0q7lfZKRTA3RABB8tFiibshpEktXw/Ky/DmjjcftbjzYIL66S//75vbHH9ffzgjgzi0Vg6lNpLtNo5vrwAi2EeMk7sXWDQm/j3cUMB0OXLxVvNTCbgfbfT/0HT/gYzt8DcpBPHys7/Dvvf5qw97rr2jr+64SsD/ZPU/B3q7YdZl6/8apLlKrp4Amh7xJLn7daC6sS8vx7JbhXCj8P5pXqrtkcbzgn830YD0eKaMNC1BcFuqTwjcvwMpjRSL/yfAFy3NE4e8QHwgfQjo+Qxm+VIdjZE+HYwfZcrD3djC5t4utPbeXvyz5g5b8Bs0QX1JKPeJhjD3Pbl9nhg6Vra5w8KjnUtt1302uqK7/AKIy5PVfkaDgfw==&lt;/diagram&gt;&lt;/mxfile&gt;"><defs/><g><rect x="70" y="85" width="70" height="30" fill="none" stroke="none" pointer-events="all"/><g transform="translate(-0.5 -0.5)"><switch><foreignObject pointer-events="none" width="100%" height="100%" requiredFeatures="http://www.w3.org/TR/SVG11/feature#Extensibility" style="overflow: visible; text-align: left;"><div xmlns="http://www.w3.org/1999/xhtml" style="display: flex; align-items: unsafe center; justify-content: unsafe center; width: 1px; height: 1px; padding-top: 100px; margin-left: 105px;"><div data-drawio-colors="color: rgb(0, 0, 0); " style="box-sizing: border-box; font-size: 0px; text-align: center;"><div style="display: inline-block; font-size: 12px; font-family: Helvetica; color: rgb(0, 0, 0); line-height: 1.2; pointer-events: all; white-space: nowrap;"><font style="font-size: 28px">后端</font></div></div></div></foreignObject><text x="105" y="104" fill="rgb(0, 0, 0)" font-family="Helvetica" font-size="12px" text-anchor="middle">后端</text></switch></g><rect x="345" y="80" width="180" height="40" fill="none" stroke="none" pointer-events="all"/><g transform="translate(-0.5 -0.5)"><switch><foreignObject pointer-events="none" width="100%" height="100%" requiredFeatures="http://www.w3.org/TR/SVG11/feature#Extensibility" style="overflow: visible; text-align: left;"><div xmlns="http://www.w3.org/1999/xhtml" style="display: flex; align-items: unsafe center; justify-content: unsafe center; width: 1px; height: 1px; padding-top: 100px; margin-left: 435px;"><div data-drawio-colors="color: rgb(0, 0, 0); " style="box-sizing: border-box; font-size: 0px; text-align: center;"><div style="display: inline-block; font-size: 28px; font-family: Helvetica; color: rgb(0, 0, 0); line-height: 1.2; pointer-events: all; white-space: nowrap;">准备国外外包</div></div></div></foreignObject><text x="435" y="108" fill="rgb(0, 0, 0)" font-family="Helvetica" font-size="28px" text-anchor="middle">准备国外外包</text></switch></g><rect x="650" y="110" width="70" height="40" fill="none" stroke="none" pointer-events="all"/><g transform="translate(-0.5 -0.5)"><switch><foreignObject pointer-events="none" width="100%" height="100%" requiredFeatures="http://www.w3.org/TR/SVG11/feature#Extensibility" style="overflow: visible; text-align: left;"><div xmlns="http://www.w3.org/1999/xhtml" style="display: flex; align-items: unsafe center; justify-content: unsafe center; width: 1px; height: 1px; padding-top: 130px; margin-left: 685px;"><div data-drawio-colors="color: rgb(0, 0, 0); " style="box-sizing: border-box; font-size: 0px; text-align: center;"><div style="display: inline-block; font-size: 28px; font-family: Helvetica; color: rgb(0, 0, 0); line-height: 1.2; pointer-events: all; white-space: nowrap;">英语</div></div></div></foreignObject><text x="685" y="138" fill="rgb(0, 0, 0)" font-family="Helvetica" font-size="28px" text-anchor="middle">英语</text></switch></g><rect x="0" y="200" width="70" height="40" fill="none" stroke="none" pointer-events="all"/><path d="M 0.24 199.73 C 0.24 199.73 0.24 199.73 0.24 199.73 M 0.24 199.73 C 0.24 199.73 0.24 199.73 0.24 199.73 M -0.02 206.12 C 0.47 205.21 2.15 203.73 5.22 200.09 M -0.02 206.12 C 1.53 204.29 3.61 201.82 5.22 200.09 M -0.29 212.52 C 3.52 207.87 8.46 205.49 10.87 199.69 M -0.29 212.52 C 1.95 209.24 4.07 207.96 10.87 199.69 M 0.11 218.17 C 4.09 212.73 10.52 206.26 15.85 200.05 M 0.11 218.17 C 7.02 210.79 12.98 204.76 15.85 200.05 M -0.15 224.56 C 7.38 215.78 12.54 208.78 21.5 199.66 M -0.15 224.56 C 4.36 217.8 9.33 213.47 21.5 199.66 M 0.24 230.21 C 8.46 219.24 19.09 209.88 26.48 200.02 M 0.24 230.21 C 8.11 220.21 17.58 209.9 26.48 200.02 M -0.02 236.6 C 8.45 223.04 22.67 213.81 32.13 199.62 M -0.02 236.6 C 12.26 223.84 23.52 210.02 32.13 199.62 M 1.03 241.49 C 12.39 229.82 21.81 216.82 37.11 199.98 M 1.03 241.49 C 7.46 232.66 15.66 224.31 37.11 199.98 M 6.67 241.1 C 16.31 232.94 24.76 219.83 42.1 200.34 M 6.67 241.1 C 14.38 232.67 23.63 223.4 42.1 200.34 M 11.66 241.46 C 24.76 228.44 39.04 209.89 47.74 199.95 M 11.66 241.46 C 19.46 232.61 26.99 224.96 47.74 199.95 M 17.3 241.06 C 30.88 225.54 43.32 211.65 52.73 200.31 M 17.3 241.06 C 25.8 233.11 32.09 223.58 52.73 200.31 M 22.29 241.42 C 35.17 226.29 48.62 211.5 58.37 199.91 M 22.29 241.42 C 30.87 232.79 38.82 222.61 58.37 199.91 M 27.93 241.03 C 39.22 225.85 55.36 208.98 63.36 200.27 M 27.93 241.03 C 36.64 232.57 45.13 222.61 63.36 200.27 M 32.92 241.39 C 45.99 230.07 55.67 216.65 69 199.88 M 32.92 241.39 C 43.29 229.67 54.86 215.98 69 199.88 M 38.56 240.99 C 46.91 231.02 56.07 222.31 72.68 201.75 M 38.56 240.99 C 50.93 226.52 63.95 213.11 72.68 201.75 M 43.55 241.35 C 51.88 228.88 61.38 218.42 72.42 208.15 M 43.55 241.35 C 54.43 229.45 65.62 215.54 72.42 208.15 M 49.19 240.96 C 53.35 236.49 59.01 227.17 72.16 214.55 M 49.19 240.96 C 57.87 232.58 64.89 221.69 72.16 214.55 M 54.18 241.32 C 60.57 232.66 66.73 224.81 72.55 220.19 M 54.18 241.32 C 61.47 234.24 67.03 225.53 72.55 220.19 M 59.82 240.93 C 61.91 238.56 65.53 232.84 72.29 226.59 M 59.82 240.93 C 64.59 236.13 67.22 230.94 72.29 226.59 M 64.81 241.29 C 67.94 237.93 70.42 235.96 72.68 232.23 M 64.81 241.29 C 67.22 238.52 69.16 235.5 72.68 232.23" fill="none" stroke="#fff2cc" stroke-linejoin="round" stroke-linecap="round" stroke-miterlimit="10" pointer-events="all"/><path d="M 0 200 C 12.04 198.95 27.19 199.69 70 200 M 0 200 C 16.8 201.17 34.47 199.5 70 200 M 70 200 C 68.39 214.56 68.69 228.59 70 240 M 70 200 C 70.04 212.49 69.4 225.05 70 240 M 70 240 C 43.11 241.03 19.51 238.95 0 240 M 70 240 C 52.78 240.65 36.21 239.2 0 240 M 0 240 C 1.63 231.48 -1.8 222.65 0 200 M 0 240 C -0.29 227.02 -0.31 214.54 0 200" fill="none" stroke="#d6b656" stroke-linejoin="round" stroke-linecap="round" stroke-miterlimit="10" pointer-events="all"/><g transform="translate(-0.5 -0.5)"><switch><foreignObject pointer-events="none" width="100%" height="100%" requiredFeatures="http://www.w3.org/TR/SVG11/feature#Extensibility" style="overflow: visible; text-align: left;"><div xmlns="http://www.w3.org/1999/xhtml" style="display: flex; align-items: unsafe center; justify-content: unsafe center; width: 68px; height: 1px; padding-top: 220px; margin-left: 1px;"><div data-drawio-colors="color: rgb(0, 0, 0); " style="box-sizing: border-box; font-size: 0px; text-align: center;"><div style="display: inline-block; font-size: 12px; font-family: Helvetica; color: rgb(0, 0, 0); line-height: 1.2; pointer-events: all; white-space: normal; overflow-wrap: normal;">Shiro</div></div></div></foreignObject><text x="35" y="224" fill="rgb(0, 0, 0)" font-family="Helvetica" font-size="12px" text-anchor="middle">Shiro</text></switch></g><path d="M 125 280 L 92.99 324.82" fill="none" stroke="none" pointer-events="stroke"/><path d="M 89.94 329.09 L 91.16 321.36 L 92.99 324.82 L 96.85 325.43 Z" fill="none" stroke="none" pointer-events="all"/><path d="M 125 280 M 125 280 C 119.71 289.36 109.92 299.23 92.99 324.82 M 125 280 C 118.79 289.02 111.57 299.97 92.99 324.82" fill="none" stroke="rgb(0, 0, 0)" stroke-linejoin="round" stroke-linecap="round" stroke-miterlimit="10" pointer-events="stroke"/><path d="M 91.26 321.25 C 91.26 321.25 91.26 321.25 91.26 321.25 M 91.26 321.25 C 91.26 321.25 91.26 321.25 91.26 321.25 M 89.68 329.16 C 90.49 328.26 91.63 326.25 92.96 325.38 M 89.68 329.16 C 90.3 328.45 91.27 327.55 92.96 325.38" fill="none" stroke="rgb(0, 0, 0)" stroke-linejoin="round" stroke-linecap="round" stroke-miterlimit="10" pointer-events="all"/><path d="M 89.94 329.09 M 89.94 329.09 C 90.23 325.95 90.98 323.66 91.16 321.36 M 89.94 329.09 C 90.63 326.09 90.48 323.48 91.16 321.36 M 91.16 321.36 C 92.02 322.26 92.3 323.26 92.99 324.82 M 91.16 321.36 C 91.68 322.42 92.12 323.32 92.99 324.82 M 92.99 324.82 C 94.21 324.83 95.17 325.36 96.85 325.43 M 92.99 324.82 C 94.43 325.21 95.72 325.28 96.85 325.43 M 96.85 325.43 C 94.2 326.28 93.68 327.24 89.94 329.09 M 96.85 325.43 C 94.66 326.69 92.99 327.91 89.94 329.09" fill="none" stroke="rgb(0, 0, 0)" stroke-linejoin="round" stroke-linecap="round" stroke-miterlimit="10" pointer-events="all"/><path d="M 125 280 L 157.01 324.82" fill="none" stroke="none" pointer-events="stroke"/><path d="M 160.06 329.09 L 153.15 325.43 L 157.01 324.82 L 158.84 321.36 Z" fill="none" stroke="none" pointer-events="all"/><path d="M 125 280 M 125 280 C 130.05 289.79 138.25 300.26 157.01 324.82 M 125 280 C 132.92 290.63 140.79 301.95 157.01 324.82" fill="none" stroke="rgb(0, 0, 0)" stroke-linejoin="round" stroke-linecap="round" stroke-miterlimit="10" pointer-events="stroke"/><path d="M 152.85 325.77 C 152.85 325.77 152.85 325.77 152.85 325.77 M 152.85 325.77 C 152.85 325.77 152.85 325.77 152.85 325.77 M 156.53 327.64 C 158 326.53 157.97 325.75 160.47 323.11 M 156.53 327.64 C 157.64 325.96 159.51 324.1 160.47 323.11" fill="none" stroke="rgb(0, 0, 0)" stroke-linejoin="round" stroke-linecap="round" stroke-miterlimit="10" pointer-events="all"/><path d="M 160.06 329.09 M 160.06 329.09 C 158.83 327.73 156.41 327.63 153.15 325.43 M 160.06 329.09 C 158.38 327.89 156.41 327.21 153.15 325.43 M 153.15 325.43 C 154.6 325.16 155.84 325.28 157.01 324.82 M 153.15 325.43 C 154.48 325.18 155.84 325.12 157.01 324.82 M 157.01 324.82 C 157.94 323.82 158.04 322.51 158.84 321.36 M 157.01 324.82 C 157.63 323.93 158.03 323.02 158.84 321.36 M 158.84 321.36 C 158.81 323.23 160.33 327.28 160.06 329.09 M 158.84 321.36 C 159.03 324.51 159.47 327.25 160.06 329.09" fill="none" stroke="rgb(0, 0, 0)" stroke-linejoin="round" stroke-linecap="round" stroke-miterlimit="10" pointer-events="all"/><rect x="90" y="240" width="70" height="40" fill="none" stroke="none" pointer-events="all"/><path d="M 89.68 240.37 C 89.68 240.37 89.68 240.37 89.68 240.37 M 89.68 240.37 C 89.68 240.37 89.68 240.37 89.68 240.37 M 90.07 246.02 C 92.74 244.29 94.57 240.66 95.32 239.98 M 90.07 246.02 C 91.46 244.69 93.17 242.94 95.32 239.98 M 89.81 252.41 C 92.76 249.23 95.96 245.48 100.31 240.34 M 89.81 252.41 C 94.53 248.55 98.07 242.52 100.31 240.34 M 90.2 258.06 C 94.18 250.74 100.71 246.76 105.95 239.94 M 90.2 258.06 C 95.24 252.71 99.69 246.02 105.95 239.94 M 89.94 264.46 C 93.99 257.43 98.96 254.45 110.94 240.3 M 89.94 264.46 C 96.18 258.35 100.88 251.23 110.94 240.3 M 89.68 270.85 C 97.62 263.31 101.07 255.54 116.58 239.91 M 89.68 270.85 C 99.23 258.23 108.62 246.95 116.58 239.91 M 90.07 276.5 C 97.78 263.94 110.47 254.95 121.57 240.27 M 90.07 276.5 C 100.89 263.63 112.18 250.13 121.57 240.27 M 91.13 281.38 C 98.64 271.3 106.75 264.8 127.21 239.88 M 91.13 281.38 C 104.84 265.59 119.05 249.72 127.21 239.88 M 96.77 280.99 C 107.81 267.13 119.72 255.18 132.2 240.24 M 96.77 280.99 C 109.92 267.41 122.53 250.66 132.2 240.24 M 101.76 281.35 C 112.38 267.94 122.76 256.18 137.84 239.84 M 101.76 281.35 C 111.99 270.77 121.88 259.23 137.84 239.84 M 107.4 280.96 C 115.01 272.14 124.2 260.61 142.83 240.2 M 107.4 280.96 C 118.95 266.72 130.08 253.78 142.83 240.2 M 112.39 281.32 C 127.24 265 141.01 248.9 148.47 239.81 M 112.39 281.32 C 121.63 271.6 131.24 261.11 148.47 239.81 M 118.03 280.92 C 128.22 270.42 134.08 262.41 153.46 240.17 M 118.03 280.92 C 132.05 265.11 145.64 248.18 153.46 240.17 M 123.02 281.28 C 134.66 270.01 144.93 257.63 159.1 239.77 M 123.02 281.28 C 132.76 268.88 143.3 257.96 159.1 239.77 M 128.66 280.89 C 140.55 268.49 149.82 254.53 162.12 242.4 M 128.66 280.89 C 137.93 269.27 148.68 257.95 162.12 242.4 M 133.65 281.25 C 144.24 268.64 154.67 258.79 162.51 248.04 M 133.65 281.25 C 140.58 272.85 147.3 265.57 162.51 248.04 M 139.29 280.85 C 146.37 270.84 158.03 260.82 162.25 254.44 M 139.29 280.85 C 144.66 275.38 149.82 268.64 162.25 254.44 M 144.28 281.21 C 149.62 277.18 152.88 271.26 162.65 260.08 M 144.28 281.21 C 150.59 273.44 157.88 264.46 162.65 260.08 M 149.92 280.82 C 154.97 276.4 160.72 269.49 162.38 266.48 M 149.92 280.82 C 153.67 277.37 155.12 273.99 162.38 266.48 M 154.91 281.18 C 157.91 278.24 158.5 276.1 162.12 272.88 M 154.91 281.18 C 157.18 279.19 158.93 276.34 162.12 272.88" fill="none" stroke="#fff2cc" stroke-linejoin="round" stroke-linecap="round" stroke-miterlimit="10" pointer-events="all"/><path d="M 90 240 C 103.75 240.59 116.56 237.73 160 240 M 90 240 C 117.27 238.75 144.17 239.51 160 240 M 160 240 C 161.86 249.72 159.87 255.89 160 280 M 160 240 C 160.64 250.05 159.8 262.19 160 280 M 160 280 C 141.28 279.55 119.03 280.46 90 280 M 160 280 C 137.54 279.21 115.29 279.53 90 280 M 90 280 C 89.2 268.19 90.82 255.71 90 240 M 90 280 C 89.05 270.73 89.37 261.82 90 240" fill="none" stroke="#d6b656" stroke-linejoin="round" stroke-linecap="round" stroke-miterlimit="10" pointer-events="all"/><g transform="translate(-0.5 -0.5)"><switch><foreignObject pointer-events="none" width="100%" height="100%" requiredFeatures="http://www.w3.org/TR/SVG11/feature#Extensibility" style="overflow: visible; text-align: left;"><div xmlns="http://www.w3.org/1999/xhtml" style="display: flex; align-items: unsafe center; justify-content: unsafe center; width: 68px; height: 1px; padding-top: 260px; margin-left: 91px;"><div data-drawio-colors="color: rgb(0, 0, 0); " style="box-sizing: border-box; font-size: 0px; text-align: center;"><div style="display: inline-block; font-size: 12px; font-family: Helvetica; color: rgb(0, 0, 0); line-height: 1.2; pointer-events: all; white-space: normal; overflow-wrap: normal;">Redis</div></div></div></foreignObject><text x="125" y="264" fill="rgb(0, 0, 0)" font-family="Helvetica" font-size="12px" text-anchor="middle">Redis</text></switch></g><path d="M 215 220 L 215 243.63" fill="none" stroke="none" pointer-events="stroke"/><path d="M 215 248.88 L 211.5 241.88 L 215 243.63 L 218.5 241.88 Z" fill="none" stroke="none" pointer-events="all"/><path d="M 215 220 M 215 220 C 216.19 224.44 216.45 230.63 215 243.63 M 215 220 C 214.05 227.46 214.06 234.78 215 243.63" fill="none" stroke="rgb(0, 0, 0)" stroke-linejoin="round" stroke-linecap="round" stroke-miterlimit="10" pointer-events="stroke"/><path d="M 211.64 241.72 C 211.64 241.72 211.64 241.72 211.64 241.72 M 211.64 241.72 C 211.64 241.72 211.64 241.72 211.64 241.72 M 213.35 245.85 C 214.07 244.96 214.55 244.89 215.31 243.59 M 213.35 245.85 C 214.03 245.06 214.75 244.46 215.31 243.59" fill="none" stroke="rgb(0, 0, 0)" stroke-linejoin="round" stroke-linecap="round" stroke-miterlimit="10" pointer-events="all"/><path d="M 215 248.88 M 215 248.88 C 214.63 247.32 214.05 245.6 211.5 241.88 M 215 248.88 C 213.71 246.58 212.9 244.31 211.5 241.88 M 211.5 241.88 C 212.35 242.21 213.39 242.51 215 243.63 M 211.5 241.88 C 212.64 242.36 213.74 243.03 215 243.63 M 215 243.63 C 215.56 242.97 216.71 242.78 218.5 241.88 M 215 243.63 C 216.19 242.94 217.39 242.49 218.5 241.88 M 218.5 241.88 C 217.84 243.59 217.02 244.49 215 248.88 M 218.5 241.88 C 217.46 244.48 215.82 246.82 215 248.88" fill="none" stroke="rgb(0, 0, 0)" stroke-linejoin="round" stroke-linecap="round" stroke-miterlimit="10" pointer-events="all"/><rect x="180" y="180" width="70" height="40" fill="none" stroke="none" pointer-events="all"/><path d="M 178.75 179.92 L 249.84 178.99 L 250.71 221.9 L 178.49 218.67" fill="rgb(255, 255, 255)" stroke="none" pointer-events="all"/><path d="M 180 180 C 192.61 180.12 208.24 181.45 250 180 M 180 180 C 197.51 179.94 217.02 179.92 250 180 M 250 180 C 251.19 189.3 248.07 199.54 250 220 M 250 180 C 249.94 190.83 249.99 199.76 250 220 M 250 220 C 233.36 220.8 215.78 219.21 180 220 M 250 220 C 223.92 219.49 199.83 220.7 180 220 M 180 220 C 181.18 210.54 179.34 202.24 180 180 M 180 220 C 180.12 204.59 180.61 189.45 180 180" fill="none" stroke="rgb(0, 0, 0)" stroke-linejoin="round" stroke-linecap="round" stroke-miterlimit="10" pointer-events="all"/><g transform="translate(-0.5 -0.5)"><switch><foreignObject pointer-events="none" width="100%" height="100%" requiredFeatures="http://www.w3.org/TR/SVG11/feature#Extensibility" style="overflow: visible; text-align: left;"><div xmlns="http://www.w3.org/1999/xhtml" style="display: flex; align-items: unsafe center; justify-content: unsafe center; width: 68px; height: 1px; padding-top: 200px; margin-left: 181px;"><div data-drawio-colors="color: rgb(0, 0, 0); " style="box-sizing: border-box; font-size: 0px; text-align: center;"><div style="display: inline-block; font-size: 12px; font-family: Helvetica; color: rgb(0, 0, 0); line-height: 1.2; pointer-events: all; white-space: normal; overflow-wrap: normal;">Kafka</div></div></div></foreignObject><text x="215" y="204" fill="rgb(0, 0, 0)" font-family="Helvetica" font-size="12px" text-anchor="middle">Kafka</text></switch></g><path d="M 75 370 L 100.5 395.5" fill="none" stroke="none" pointer-events="stroke"/><path d="M 104.21 399.21 L 96.78 396.73 L 100.5 395.5 L 101.73 391.78 Z" fill="none" stroke="none" pointer-events="all"/><path d="M 75 370 M 75 370 C 80.48 373.56 84.96 380.34 100.5 395.5 M 75 370 C 84.86 379.9 94.04 388.84 100.5 395.5" fill="none" stroke="rgb(0, 0, 0)" stroke-linejoin="round" stroke-linecap="round" stroke-miterlimit="10" pointer-events="stroke"/><path d="M 97 396.47 C 97 396.47 97 396.47 97 396.47 M 97 396.47 C 97 396.47 97 396.47 97 396.47 M 100.68 398.34 C 102.18 397.07 102.94 395.16 104.62 393.81 M 100.68 398.34 C 101.72 396.78 103.33 395.62 104.62 393.81" fill="none" stroke="rgb(0, 0, 0)" stroke-linejoin="round" stroke-linecap="round" stroke-miterlimit="10" pointer-events="all"/><path d="M 104.21 399.21 M 104.21 399.21 C 101.45 398.78 97.95 396.74 96.78 396.73 M 104.21 399.21 C 101.95 398.25 99.26 397.6 96.78 396.73 M 96.78 396.73 C 97.9 396.15 99.61 395.91 100.5 395.5 M 96.78 396.73 C 97.55 396.33 98.57 396.12 100.5 395.5 M 100.5 395.5 C 101.06 394.52 101.23 393.22 101.73 391.78 M 100.5 395.5 C 100.91 394.43 101.18 393.43 101.73 391.78 M 101.73 391.78 C 103.2 393.51 102.77 396.17 104.21 399.21 M 101.73 391.78 C 102.34 394.3 103.09 396.66 104.21 399.21" fill="none" stroke="rgb(0, 0, 0)" stroke-linejoin="round" stroke-linecap="round" stroke-miterlimit="10" pointer-events="all"/><rect x="40" y="330" width="70" height="40" fill="none" stroke="none" pointer-events="all"/><path d="M 40.27 328.14 L 109.96 330.7 L 108.53 370.43 L 38.08 370.65" fill="rgb(255, 255, 255)" stroke="none" pointer-events="all"/><path d="M 40 330 C 55.47 328.24 69.92 329.78 110 330 M 40 330 C 63.74 329.73 87.87 330.93 110 330 M 110 330 C 111.32 342.87 111.06 353.19 110 370 M 110 330 C 109.23 339.61 110.19 347.33 110 370 M 110 370 C 95.45 372.06 78.54 371.97 40 370 M 110 370 C 96.3 369.77 82.37 369.87 40 370 M 40 370 C 39.96 354.89 38.65 338.78 40 330 M 40 370 C 40.39 356.45 39.04 343.09 40 330" fill="none" stroke="rgb(0, 0, 0)" stroke-linejoin="round" stroke-linecap="round" stroke-miterlimit="10" pointer-events="all"/><g transform="translate(-0.5 -0.5)"><switch><foreignObject pointer-events="none" width="100%" height="100%" requiredFeatures="http://www.w3.org/TR/SVG11/feature#Extensibility" style="overflow: visible; text-align: left;"><div xmlns="http://www.w3.org/1999/xhtml" style="display: flex; align-items: unsafe center; justify-content: unsafe center; width: 68px; height: 1px; padding-top: 350px; margin-left: 41px;"><div data-drawio-colors="color: rgb(0, 0, 0); " style="box-sizing: border-box; font-size: 0px; text-align: center;"><div style="display: inline-block; font-size: 12px; font-family: Helvetica; color: rgb(0, 0, 0); line-height: 1.2; pointer-events: all; white-space: normal; overflow-wrap: normal;">Spring Cloud</div></div></div></foreignObject><text x="75" y="354" fill="rgb(0, 0, 0)" font-family="Helvetica" font-size="12px" text-anchor="middle">Spring Cloud</text></switch></g><path d="M 175 370 L 149.5 395.5" fill="none" stroke="none" pointer-events="stroke"/><path d="M 145.79 399.21 L 148.27 391.78 L 149.5 395.5 L 153.22 396.73 Z" fill="none" stroke="none" pointer-events="all"/><path d="M 175 370 M 175 370 C 168.6 376.8 165.12 379.78 149.5 395.5 M 175 370 C 168.16 376.86 162.99 381.75 149.5 395.5" fill="none" stroke="rgb(0, 0, 0)" stroke-linejoin="round" stroke-linecap="round" stroke-miterlimit="10" pointer-events="stroke"/><path d="M 148.16 391.91 C 148.16 391.91 148.16 391.91 148.16 391.91 M 148.16 391.91 C 148.16 391.91 148.16 391.91 148.16 391.91 M 146.58 399.82 C 147.88 398.12 148.35 397.07 149.86 396.04 M 146.58 399.82 C 147.74 398.53 148.73 397.6 149.86 396.04" fill="none" stroke="rgb(0, 0, 0)" stroke-linejoin="round" stroke-linecap="round" stroke-miterlimit="10" pointer-events="all"/><path d="M 145.79 399.21 M 145.79 399.21 C 146.67 395.92 147.79 394.37 148.27 391.78 M 145.79 399.21 C 146.82 396.28 148.05 393.18 148.27 391.78 M 148.27 391.78 C 148.85 392.88 148.85 393.89 149.5 395.5 M 148.27 391.78 C 148.43 392.47 148.78 393.32 149.5 395.5 M 149.5 395.5 C 150.57 395.55 151.87 396.06 153.22 396.73 M 149.5 395.5 C 150.71 395.78 152.02 396.36 153.22 396.73 M 153.22 396.73 C 150.02 397.91 147.87 398.71 145.79 399.21 M 153.22 396.73 C 151.57 397.6 149.11 398.46 145.79 399.21" fill="none" stroke="rgb(0, 0, 0)" stroke-linejoin="round" stroke-linecap="round" stroke-miterlimit="10" pointer-events="all"/><rect x="140" y="330" width="70" height="40" fill="none" stroke="none" pointer-events="all"/><path d="M 139.34 330.71 L 210.04 329.29 L 211.71 369.87 L 138.19 369.34" fill="rgb(255, 255, 255)" stroke="none" pointer-events="all"/><path d="M 140 330 C 155.96 329.18 171.25 328.98 210 330 M 140 330 C 154.94 330.85 167.95 330.45 210 330 M 210 330 C 210.03 337.49 209.76 347.02 210 370 M 210 330 C 209.43 341.87 209.5 354.96 210 370 M 210 370 C 189.98 369.6 167.44 370.93 140 370 M 210 370 C 195.56 370.93 179.75 370.35 140 370 M 140 370 C 138.48 359.36 139.69 347.75 140 330 M 140 370 C 140.39 360.44 141.34 350.38 140 330" fill="none" stroke="rgb(0, 0, 0)" stroke-linejoin="round" stroke-linecap="round" stroke-miterlimit="10" pointer-events="all"/><g transform="translate(-0.5 -0.5)"><switch><foreignObject pointer-events="none" width="100%" height="100%" requiredFeatures="http://www.w3.org/TR/SVG11/feature#Extensibility" style="overflow: visible; text-align: left;"><div xmlns="http://www.w3.org/1999/xhtml" style="display: flex; align-items: unsafe center; justify-content: unsafe center; width: 68px; height: 1px; padding-top: 350px; margin-left: 141px;"><div data-drawio-colors="color: rgb(0, 0, 0); " style="box-sizing: border-box; font-size: 0px; text-align: center;"><div style="display: inline-block; font-size: 12px; font-family: Helvetica; color: rgb(0, 0, 0); line-height: 1.2; pointer-events: all; white-space: normal; overflow-wrap: normal;">并发编程</div></div></div></foreignObject><text x="175" y="354" fill="rgb(0, 0, 0)" font-family="Helvetica" font-size="12px" text-anchor="middle">并发编程</text></switch></g><rect x="90" y="400" width="70" height="40" fill="none" stroke="none" pointer-events="all"/><path d="M 90.87 398.93 L 160.15 401 L 159.54 438.4 L 91.78 441.33" fill="rgb(255, 255, 255)" stroke="none" pointer-events="all"/><path d="M 90 400 C 104.82 401.3 118.93 401.3 160 400 M 90 400 C 109.17 400.64 128.8 399.46 160 400 M 160 400 C 159.36 411.07 157.96 420.67 160 440 M 160 400 C 160.73 410.65 159.69 422.54 160 440 M 160 440 C 142.07 440.86 124.2 439.68 90 440 M 160 440 C 141.94 441.21 124.29 439.52 90 440 M 90 440 C 90.46 423.71 88.21 408.28 90 400 M 90 440 C 90.66 424.29 89.78 408.02 90 400" fill="none" stroke="rgb(0, 0, 0)" stroke-linejoin="round" stroke-linecap="round" stroke-miterlimit="10" pointer-events="all"/><g transform="translate(-0.5 -0.5)"><switch><foreignObject pointer-events="none" width="100%" height="100%" requiredFeatures="http://www.w3.org/TR/SVG11/feature#Extensibility" style="overflow: visible; text-align: left;"><div xmlns="http://www.w3.org/1999/xhtml" style="display: flex; align-items: unsafe center; justify-content: unsafe center; width: 68px; height: 1px; padding-top: 420px; margin-left: 91px;"><div data-drawio-colors="color: rgb(0, 0, 0); " style="box-sizing: border-box; font-size: 0px; text-align: center;"><div style="display: inline-block; font-size: 12px; font-family: Helvetica; color: rgb(0, 0, 0); line-height: 1.2; pointer-events: all; white-space: normal; overflow-wrap: normal;">Spring 内核</div></div></div></foreignObject><text x="125" y="424" fill="rgb(0, 0, 0)" font-family="Helvetica" font-size="12px" text-anchor="middle">Spring 内核</text></switch></g><path d="M 215 290 L 115.85 332.49" fill="none" stroke="none" pointer-events="stroke"/><path d="M 111.03 334.56 L 116.08 328.59 L 115.85 332.49 L 118.84 335.02 Z" fill="none" stroke="none" pointer-events="all"/><path d="M 215 290 M 215 290 C 194.78 300.33 172.64 307.49 115.85 332.49 M 215 290 C 184.2 301.74 155.44 315.25 115.85 332.49" fill="none" stroke="rgb(0, 0, 0)" stroke-linejoin="round" stroke-linecap="round" stroke-miterlimit="10" pointer-events="stroke"/><path d="M 116.25 328.4 C 116.25 328.4 116.25 328.4 116.25 328.4 M 116.25 328.4 C 116.25 328.4 116.25 328.4 116.25 328.4 M 114.02 337.06 C 115.16 335.85 116.1 334.1 117.3 333.29 M 114.02 337.06 C 115.34 335.81 116.09 334.51 117.3 333.29" fill="none" stroke="rgb(0, 0, 0)" stroke-linejoin="round" stroke-linecap="round" stroke-miterlimit="10" pointer-events="all"/><path d="M 111.03 334.56 M 111.03 334.56 C 113.07 333.07 113.69 331.94 116.08 328.59 M 111.03 334.56 C 112.98 332.21 114.73 330.96 116.08 328.59 M 116.08 328.59 C 115.83 329.8 116.17 331.32 115.85 332.49 M 116.08 328.59 C 116.05 329.67 116.04 330.96 115.85 332.49 M 115.85 332.49 C 116.4 333.29 117.84 334.28 118.84 335.02 M 115.85 332.49 C 116.46 333.27 117.46 333.84 118.84 335.02 M 118.84 335.02 C 115.36 334.43 113.42 334.12 111.03 334.56 M 118.84 335.02 C 117.33 335.04 114.7 335.11 111.03 334.56" fill="none" stroke="rgb(0, 0, 0)" stroke-linejoin="round" stroke-linecap="round" stroke-miterlimit="10" pointer-events="all"/><path d="M 215 290 L 191.87 324.7" fill="none" stroke="none" pointer-events="stroke"/><path d="M 188.95 329.07 L 189.92 321.3 L 191.87 324.7 L 195.75 325.19 Z" fill="none" stroke="none" pointer-events="all"/><path d="M 215 290 M 215 290 C 209.75 297.62 206.51 303.33 191.87 324.7 M 215 290 C 206.87 302.83 197.14 315.68 191.87 324.7" fill="none" stroke="rgb(0, 0, 0)" stroke-linejoin="round" stroke-linecap="round" stroke-miterlimit="10" pointer-events="stroke"/><path d="M 190.12 321.07 C 190.12 321.07 190.12 321.07 190.12 321.07 M 190.12 321.07 C 190.12 321.07 190.12 321.07 190.12 321.07 M 189.21 328.22 C 190.16 326.8 191.57 325.82 191.83 325.2 M 189.21 328.22 C 190.04 327.29 190.75 326.27 191.83 325.2" fill="none" stroke="rgb(0, 0, 0)" stroke-linejoin="round" stroke-linecap="round" stroke-miterlimit="10" pointer-events="all"/><path d="M 188.95 329.07 M 188.95 329.07 C 189.59 327.86 189.84 325.56 189.92 321.3 M 188.95 329.07 C 189.22 325.92 189.29 323.33 189.92 321.3 M 189.92 321.3 C 190.81 322.12 191.14 323.61 191.87 324.7 M 189.92 321.3 C 190.59 322.05 190.77 323 191.87 324.7 M 191.87 324.7 C 193.32 325.27 194.71 325.22 195.75 325.19 M 191.87 324.7 C 193.24 325.02 194.46 324.92 195.75 325.19 M 195.75 325.19 C 194.04 326.63 192.1 326.95 188.95 329.07 M 195.75 325.19 C 194.41 326.15 192.66 326.48 188.95 329.07" fill="none" stroke="rgb(0, 0, 0)" stroke-linejoin="round" stroke-linecap="round" stroke-miterlimit="10" pointer-events="all"/><rect x="180" y="250" width="70" height="40" fill="none" stroke="none" pointer-events="all"/><path d="M 178.65 251.8 L 249.54 250.38 L 248.26 288.22 L 181.53 290.87" fill="rgb(255, 255, 255)" stroke="none" pointer-events="all"/><path d="M 180 250 C 196.54 248.16 211.36 250.14 250 250 M 180 250 C 196.25 248.98 212.32 250.34 250 250 M 250 250 C 250.16 260.42 250.57 276.16 250 290 M 250 250 C 250.07 264.04 249.95 277.7 250 290 M 250 290 C 226.6 289.75 204.88 289.54 180 290 M 250 290 C 229.29 291.42 210.43 290.35 180 290 M 180 290 C 180.7 280.24 178.36 274.22 180 250 M 180 290 C 179.97 276.01 180.08 263.14 180 250" fill="none" stroke="rgb(0, 0, 0)" stroke-linejoin="round" stroke-linecap="round" stroke-miterlimit="10" pointer-events="all"/><g transform="translate(-0.5 -0.5)"><switch><foreignObject pointer-events="none" width="100%" height="100%" requiredFeatures="http://www.w3.org/TR/SVG11/feature#Extensibility" style="overflow: visible; text-align: left;"><div xmlns="http://www.w3.org/1999/xhtml" style="display: flex; align-items: unsafe center; justify-content: unsafe center; width: 68px; height: 1px; padding-top: 270px; margin-left: 181px;"><div data-drawio-colors="color: rgb(0, 0, 0); " style="box-sizing: border-box; font-size: 0px; text-align: center;"><div style="display: inline-block; font-size: 12px; font-family: Helvetica; color: rgb(0, 0, 0); line-height: 1.2; pointer-events: all; white-space: normal; overflow-wrap: normal;">Oracle</div></div></div></foreignObject><text x="215" y="274" fill="rgb(0, 0, 0)" font-family="Helvetica" font-size="12px" text-anchor="middle">Oracle</text></switch></g><path d="M 270 470 L 260 100" fill="none" stroke="none" pointer-events="stroke"/><path d="M 270 470 M 270 470 C 266.61 390.74 264.06 314.18 260 100 M 270 470 C 265.47 351.64 262.34 233.33 260 100" fill="none" stroke="rgb(0, 0, 0)" stroke-width="2" stroke-linejoin="round" stroke-linecap="round" stroke-miterlimit="10" stroke-dasharray="2 6" pointer-events="stroke"/><path d="M 600 470 L 590 100" fill="none" stroke="none" pointer-events="stroke"/><path d="M 600 470 M 600 470 C 600.07 392.64 596.8 313.74 590 100 M 600 470 C 593.95 325.17 589.84 179.74 590 100" fill="none" stroke="rgb(0, 0, 0)" stroke-width="2" stroke-linejoin="round" stroke-linecap="round" stroke-miterlimit="10" stroke-dasharray="2 6" pointer-events="stroke"/><rect x="180" y="180" width="70" height="40" fill="none" stroke="none" pointer-events="all"/><path d="M 180.12 179.87 C 180.12 179.87 180.12 179.87 180.12 179.87 M 180.12 179.87 C 180.12 179.87 180.12 179.87 180.12 179.87 M 179.85 186.26 C 181.21 184.47 183.06 182.46 185.1 180.23 M 179.85 186.26 C 181.16 185.12 182.39 183.99 185.1 180.23 M 180.25 191.91 C 184.8 186.84 189.98 183.11 190.75 179.83 M 180.25 191.91 C 184.31 187.03 187.68 183.12 190.75 179.83 M 179.99 198.3 C 181.73 193.55 185.53 192.48 195.73 180.19 M 179.99 198.3 C 184.63 192.72 190.57 186.18 195.73 180.19 M 179.73 204.7 C 188.85 193.87 194.82 187.58 201.38 179.8 M 179.73 204.7 C 185.24 197.42 189.87 191.2 201.38 179.8 M 180.12 210.35 C 186.49 199.47 194.65 190.53 206.36 180.16 M 180.12 210.35 C 186.49 202.54 192.91 195.42 206.36 180.16 M 179.86 216.74 C 184.7 208.3 192.98 203.67 212.01 179.76 M 179.86 216.74 C 193.11 202.48 204.3 188.87 212.01 179.76 M 181.57 220.88 C 190.74 211.3 201.66 197.22 216.99 180.12 M 181.57 220.88 C 192.72 209.64 202.71 195.82 216.99 180.12 M 186.55 221.24 C 193.51 212.03 200.72 204 222.64 179.73 M 186.55 221.24 C 196.5 208.4 207.24 197.43 222.64 179.73 M 192.2 220.84 C 205.57 207.87 216.95 194.02 227.62 180.09 M 192.2 220.84 C 200.27 211.98 207.95 204.56 227.62 180.09 M 197.18 221.2 C 210.93 206.52 224.36 193.5 233.27 179.69 M 197.18 221.2 C 207.06 210.32 215.34 200.48 233.27 179.69 M 202.83 220.81 C 210.16 210.95 219.94 197.8 238.25 180.05 M 202.83 220.81 C 214.05 207.09 225.88 195.39 238.25 180.05 M 207.81 221.17 C 215.85 212.06 228.3 199.48 243.9 179.66 M 207.81 221.17 C 215.08 212.79 222.78 203.37 243.9 179.66 M 212.8 221.53 C 227.7 206.93 240.62 192.97 248.88 180.02 M 212.8 221.53 C 225.91 205.43 240.67 190.48 248.88 180.02 M 218.44 221.13 C 231.62 205.01 244.11 190.21 252.56 181.89 M 218.44 221.13 C 228.04 210.74 237.82 200.63 252.56 181.89 M 223.43 221.49 C 232.16 213.04 239.72 202.73 252.3 188.29 M 223.43 221.49 C 232.78 210.31 242.79 199.05 252.3 188.29 M 229.07 221.1 C 233.34 216.84 238.88 210.48 252.69 193.93 M 229.07 221.1 C 234.45 215.24 239.74 210.62 252.69 193.93 M 234.06 221.46 C 241.85 211.29 248.36 204.82 252.43 200.33 M 234.06 221.46 C 241.09 213.16 248.34 204.56 252.43 200.33 M 239.7 221.06 C 242.85 218.53 245.4 212.27 252.17 206.73 M 239.7 221.06 C 244.54 216.48 248.48 211.22 252.17 206.73 M 244.69 221.43 C 245.52 219.97 247.68 217.18 252.56 212.37 M 244.69 221.43 C 246.66 218.3 249.62 215.63 252.56 212.37" fill="none" stroke="#fff2cc" stroke-linejoin="round" stroke-linecap="round" stroke-miterlimit="10" pointer-events="all"/><path d="M 180 180 C 196.55 180.02 211.13 179.39 250 180 M 180 180 C 203.9 180.32 226.28 180.21 250 180 M 250 180 C 251.89 195.46 248.33 207.71 250 220 M 250 180 C 250.36 195.49 250.52 210.7 250 220 M 250 220 C 231.2 219.14 216.17 221.43 180 220 M 250 220 C 223.94 219.98 198.2 219.13 180 220 M 180 220 C 177.77 210.69 179.15 201.94 180 180 M 180 220 C 180.26 211.02 179.54 204.6 180 180" fill="none" stroke="#d6b656" stroke-linejoin="round" stroke-linecap="round" stroke-miterlimit="10" pointer-events="all"/><g transform="translate(-0.5 -0.5)"><switch><foreignObject pointer-events="none" width="100%" height="100%" requiredFeatures="http://www.w3.org/TR/SVG11/feature#Extensibility" style="overflow: visible; text-align: left;"><div xmlns="http://www.w3.org/1999/xhtml" style="display: flex; align-items: unsafe center; justify-content: unsafe center; width: 68px; height: 1px; padding-top: 200px; margin-left: 181px;"><div data-drawio-colors="color: rgb(0, 0, 0); " style="box-sizing: border-box; font-size: 0px; text-align: center;"><div style="display: inline-block; font-size: 12px; font-family: Helvetica; color: rgb(0, 0, 0); line-height: 1.2; pointer-events: all; white-space: normal; overflow-wrap: normal;">Kafka</div></div></div></foreignObject><text x="215" y="204" fill="rgb(0, 0, 0)" font-family="Helvetica" font-size="12px" text-anchor="middle">Kafka</text></switch></g><path d="M 395 190 L 371.87 224.7" fill="none" stroke="none" pointer-events="stroke"/><path d="M 368.95 229.07 L 369.92 221.3 L 371.87 224.7 L 375.75 225.19 Z" fill="none" stroke="none" pointer-events="all"/><path d="M 395 190 M 395 190 C 391.15 198.56 384.6 206.25 371.87 224.7 M 395 190 C 387.7 201.86 380.17 213.87 371.87 224.7" fill="none" stroke="rgb(0, 0, 0)" stroke-linejoin="round" stroke-linecap="round" stroke-miterlimit="10" pointer-events="stroke"/><path d="M 369.75 221.49 C 369.75 221.49 369.75 221.49 369.75 221.49 M 369.75 221.49 C 369.75 221.49 369.75 221.49 369.75 221.49 M 368.84 228.64 C 369.76 227.67 370.5 227.01 372.12 224.87 M 368.84 228.64 C 369.74 227.52 371.05 225.88 372.12 224.87" fill="none" stroke="rgb(0, 0, 0)" stroke-linejoin="round" stroke-linecap="round" stroke-miterlimit="10" pointer-events="all"/><path d="M 368.95 229.07 M 368.95 229.07 C 368.83 226.7 368.85 224.43 369.92 221.3 M 368.95 229.07 C 369.04 225.78 369.41 223.23 369.92 221.3 M 369.92 221.3 C 370.8 222.09 371.16 223.31 371.87 224.7 M 369.92 221.3 C 370.64 222.44 371.3 224.12 371.87 224.7 M 371.87 224.7 C 372.77 224.98 373.82 225.08 375.75 225.19 M 371.87 224.7 C 373.16 224.91 374.3 225.09 375.75 225.19 M 375.75 225.19 C 374.87 225.47 373.05 226.64 368.95 229.07 M 375.75 225.19 C 373.87 226.55 371.42 227.49 368.95 229.07" fill="none" stroke="rgb(0, 0, 0)" stroke-linejoin="round" stroke-linecap="round" stroke-miterlimit="10" pointer-events="all"/><path d="M 395 190 L 443.24 226.18" fill="none" stroke="none" pointer-events="stroke"/><path d="M 447.44 229.33 L 439.74 227.93 L 443.24 226.18 L 443.94 222.33 Z" fill="none" stroke="none" pointer-events="all"/><path d="M 395 190 M 395 190 C 404.09 197.26 414.29 205.67 443.24 226.18 M 395 190 C 409.47 201.22 422.37 210.13 443.24 226.18" fill="none" stroke="rgb(0, 0, 0)" stroke-linejoin="round" stroke-linecap="round" stroke-miterlimit="10" pointer-events="stroke"/><path d="M 443.92 222.36 C 443.92 222.36 443.92 222.36 443.92 222.36 M 443.92 222.36 C 443.92 222.36 443.92 222.36 443.92 222.36 M 442.34 230.26 C 443.29 229.15 444.69 227.55 445.62 226.49 M 442.34 230.26 C 443.18 229.17 444.28 228.12 445.62 226.49" fill="none" stroke="rgb(0, 0, 0)" stroke-linejoin="round" stroke-linecap="round" stroke-miterlimit="10" pointer-events="all"/><path d="M 447.44 229.33 M 447.44 229.33 C 446.55 229.79 444.72 229.02 439.74 227.93 M 447.44 229.33 C 445.14 228.79 443.01 228.83 439.74 227.93 M 439.74 227.93 C 440.11 227.26 441.55 226.96 443.24 226.18 M 439.74 227.93 C 440.59 227.63 441.97 227.01 443.24 226.18 M 443.24 226.18 C 443.1 225.37 443.56 224.37 443.94 222.33 M 443.24 226.18 C 443.43 224.92 443.59 223.68 443.94 222.33 M 443.94 222.33 C 445.09 223.27 444.86 225.47 447.44 229.33 M 443.94 222.33 C 444.42 224.2 445.79 225.9 447.44 229.33" fill="none" stroke="rgb(0, 0, 0)" stroke-linejoin="round" stroke-linecap="round" stroke-miterlimit="10" pointer-events="all"/><rect x="360" y="150" width="70" height="40" fill="none" stroke="none" pointer-events="all"/><path d="M 360.29 149.66 C 360.29 149.66 360.29 149.66 360.29 149.66 M 360.29 149.66 C 360.29 149.66 360.29 149.66 360.29 149.66 M 360.03 156.06 C 362.47 153.01 363.6 151.53 365.28 150.02 M 360.03 156.06 C 361.91 153.91 364.4 151.13 365.28 150.02 M 359.77 162.46 C 363.15 159.11 365.07 155.62 370.92 149.63 M 359.77 162.46 C 363.63 158.89 367.78 154.3 370.92 149.63 M 360.16 168.1 C 361.72 164.72 367.58 158.9 375.91 149.99 M 360.16 168.1 C 365.87 161.53 369.05 156.66 375.91 149.99 M 359.9 174.5 C 365.29 169.34 368.92 161.64 380.9 150.35 M 359.9 174.5 C 368.29 165.24 374.79 156.32 380.9 150.35 M 360.3 180.14 C 366.45 173.07 372.95 165 386.54 149.96 M 360.3 180.14 C 367.39 171.16 375.65 162.7 386.54 149.96 M 360.04 186.54 C 373.13 172.74 386.92 159.02 391.53 150.32 M 360.04 186.54 C 372.06 171.38 385.13 159.09 391.53 150.32 M 361.09 191.43 C 368.11 182.08 376.55 171.04 397.17 149.92 M 361.09 191.43 C 371.65 179.28 382.23 167.62 397.17 149.92 M 366.73 191.04 C 376.26 183.13 385.06 169.82 402.16 150.28 M 366.73 191.04 C 380.02 176.49 392.24 161.01 402.16 150.28 M 371.72 191.4 C 380.45 183.76 388.5 175.21 407.8 149.89 M 371.72 191.4 C 381.15 181.51 390.15 171.99 407.8 149.89 M 377.36 191 C 391.03 177.15 402.15 159.49 412.79 150.25 M 377.36 191 C 387.59 178.17 399.13 164.81 412.79 150.25 M 382.35 191.36 C 394.85 174.92 408.57 162.77 418.43 149.85 M 382.35 191.36 C 390.5 182.66 398.75 171.71 418.43 149.85 M 387.99 190.97 C 402.39 174.25 414.61 160.14 423.42 150.21 M 387.99 190.97 C 401.32 174.71 415.97 158.89 423.42 150.21 M 392.98 191.33 C 407.16 176.39 420.38 162.95 429.06 149.82 M 392.98 191.33 C 402.58 180.04 411.22 168.63 429.06 149.82 M 398.62 190.93 C 405.49 181.48 415.18 171.95 432.08 152.44 M 398.62 190.93 C 407.61 180.7 415.19 172.71 432.08 152.44 M 403.61 191.29 C 416.02 179.74 424.94 166.42 432.47 158.08 M 403.61 191.29 C 413.55 179.83 425.2 166.56 432.47 158.08 M 409.25 190.9 C 416.86 179.62 425.55 170.44 432.21 164.48 M 409.25 190.9 C 414.4 183.78 421.91 177.75 432.21 164.48 M 414.24 191.26 C 419.08 183.4 428.14 177.9 432.61 170.13 M 414.24 191.26 C 420.15 185.54 425.43 178.92 432.61 170.13 M 419.88 190.86 C 422.75 187.17 428.26 182.22 432.34 176.52 M 419.88 190.86 C 423.12 187.08 426.46 181.77 432.34 176.52 M 424.87 191.22 C 425.77 188.85 429.12 186.14 432.08 182.92 M 424.87 191.22 C 427.51 188.28 430.39 184.96 432.08 182.92" fill="none" stroke="#fff2cc" stroke-linejoin="round" stroke-linecap="round" stroke-miterlimit="10" pointer-events="all"/><path d="M 360 150 C 375.4 148.14 388.81 151.71 430 150 M 360 150 C 374.13 149.51 389.13 150.62 430 150 M 430 150 C 431.22 165.04 430.52 181.36 430 190 M 430 150 C 429.65 164.27 430.72 178.27 430 190 M 430 190 C 417.28 190.4 402.93 190.18 360 190 M 430 190 C 414.32 190.26 400.74 190.3 360 190 M 360 190 C 360.56 175.04 358.46 162.48 360 150 M 360 190 C 360.53 174.87 359.98 162.24 360 150" fill="none" stroke="#d6b656" stroke-linejoin="round" stroke-linecap="round" stroke-miterlimit="10" pointer-events="all"/><g transform="translate(-0.5 -0.5)"><switch><foreignObject pointer-events="none" width="100%" height="100%" requiredFeatures="http://www.w3.org/TR/SVG11/feature#Extensibility" style="overflow: visible; text-align: left;"><div xmlns="http://www.w3.org/1999/xhtml" style="display: flex; align-items: unsafe center; justify-content: unsafe center; width: 68px; height: 1px; padding-top: 170px; margin-left: 361px;"><div data-drawio-colors="color: rgb(0, 0, 0); " style="box-sizing: border-box; font-size: 0px; text-align: center;"><div style="display: inline-block; font-size: 12px; font-family: Helvetica; color: rgb(0, 0, 0); line-height: 1.2; pointer-events: all; white-space: normal; overflow-wrap: normal;">React</div></div></div></foreignObject><text x="395" y="174" fill="rgb(0, 0, 0)" font-family="Helvetica" font-size="12px" text-anchor="middle">React</text></switch></g><rect x="320" y="230" width="70" height="40" fill="none" stroke="none" pointer-events="all"/><path d="M 321.95 228.9 L 389.05 231.47 L 388.82 270.58 L 320.88 268.4" fill="rgb(255, 255, 255)" stroke="none" pointer-events="all"/><path d="M 320 230 C 333.13 228.55 351.47 228.7 390 230 M 320 230 C 337.55 230.51 356.7 229.64 390 230 M 390 230 C 391.09 247.34 388.18 261.31 390 270 M 390 230 C 389.91 244.2 389.61 260.43 390 270 M 390 270 C 367.23 268.49 346.32 270.75 320 270 M 390 270 C 365.02 269.91 341.12 270.36 320 270 M 320 270 C 318.93 253.12 321.03 240.7 320 230 M 320 270 C 319.55 259.59 320.83 249.9 320 230" fill="none" stroke="rgb(0, 0, 0)" stroke-linejoin="round" stroke-linecap="round" stroke-miterlimit="10" pointer-events="all"/><g transform="translate(-0.5 -0.5)"><switch><foreignObject pointer-events="none" width="100%" height="100%" requiredFeatures="http://www.w3.org/TR/SVG11/feature#Extensibility" style="overflow: visible; text-align: left;"><div xmlns="http://www.w3.org/1999/xhtml" style="display: flex; align-items: unsafe center; justify-content: unsafe center; width: 68px; height: 1px; padding-top: 250px; margin-left: 321px;"><div data-drawio-colors="color: rgb(0, 0, 0); " style="box-sizing: border-box; font-size: 0px; text-align: center;"><div style="display: inline-block; font-size: 12px; font-family: Helvetica; color: rgb(0, 0, 0); line-height: 1.2; pointer-events: all; white-space: normal; overflow-wrap: normal;">TODO 项目前端</div></div></div></foreignObject><text x="355" y="254" fill="rgb(0, 0, 0)" font-family="Helvetica" font-size="12px" text-anchor="middle">TODO 项目前端</text></switch></g><path d="M 475 270 L 433.82 324.91" fill="none" stroke="none" pointer-events="stroke"/><path d="M 430.67 329.11 L 432.07 321.41 L 433.82 324.91 L 437.67 325.61 Z" fill="none" stroke="none" pointer-events="all"/><path d="M 475 270 M 475 270 C 467.06 282.86 455.98 291.63 433.82 324.91 M 475 270 C 464.34 281.51 455.67 295.02 433.82 324.91" fill="none" stroke="rgb(0, 0, 0)" stroke-linejoin="round" stroke-linecap="round" stroke-miterlimit="10" pointer-events="stroke"/><path d="M 431.76 321.77 C 431.76 321.77 431.76 321.77 431.76 321.77 M 431.76 321.77 C 431.76 321.77 431.76 321.77 431.76 321.77 M 430.84 328.92 C 431.81 327.6 432.88 326.07 434.12 325.15 M 430.84 328.92 C 431.69 327.93 432.58 326.95 434.12 325.15" fill="none" stroke="rgb(0, 0, 0)" stroke-linejoin="round" stroke-linecap="round" stroke-miterlimit="10" pointer-events="all"/><path d="M 430.67 329.11 M 430.67 329.11 C 431.38 326.62 431.55 324.8 432.07 321.41 M 430.67 329.11 C 431.17 326.34 431.69 323.92 432.07 321.41 M 432.07 321.41 C 432.43 322.07 433.07 323.04 433.82 324.91 M 432.07 321.41 C 432.81 322.97 433.53 324.19 433.82 324.91 M 433.82 324.91 C 434.89 325.17 436.97 325.22 437.67 325.61 M 433.82 324.91 C 434.98 324.97 436.16 325.14 437.67 325.61 M 437.67 325.61 C 435.02 326.65 432.24 327.64 430.67 329.11 M 437.67 325.61 C 434.92 327.13 432.81 327.91 430.67 329.11" fill="none" stroke="rgb(0, 0, 0)" stroke-linejoin="round" stroke-linecap="round" stroke-miterlimit="10" pointer-events="all"/><rect x="440" y="230" width="70" height="40" fill="none" stroke="none" pointer-events="all"/><path d="M 441 229.36 L 509.28 230.89 L 508.46 271.64 L 440.06 268.37" fill="rgb(255, 255, 255)" stroke="none" pointer-events="all"/><path d="M 440 230 C 454.84 230.19 470.83 230.74 510 230 M 440 230 C 454.02 230.09 468.4 229.66 510 230 M 510 230 C 510.55 242.49 509.37 252.61 510 270 M 510 230 C 510.51 243.76 510 255.57 510 270 M 510 270 C 491.4 271.01 475.83 272.27 440 270 M 510 270 C 493.78 269.07 476.2 269.29 440 270 M 440 270 C 439.69 257.82 438.86 249.76 440 230 M 440 270 C 440.09 255.31 439.7 243.17 440 230" fill="none" stroke="rgb(0, 0, 0)" stroke-linejoin="round" stroke-linecap="round" stroke-miterlimit="10" pointer-events="all"/><g transform="translate(-0.5 -0.5)"><switch><foreignObject pointer-events="none" width="100%" height="100%" requiredFeatures="http://www.w3.org/TR/SVG11/feature#Extensibility" style="overflow: visible; text-align: left;"><div xmlns="http://www.w3.org/1999/xhtml" style="display: flex; align-items: unsafe center; justify-content: unsafe center; width: 68px; height: 1px; padding-top: 250px; margin-left: 441px;"><div data-drawio-colors="color: rgb(0, 0, 0); " style="box-sizing: border-box; font-size: 0px; text-align: center;"><div style="display: inline-block; font-size: 12px; font-family: Helvetica; color: rgb(0, 0, 0); line-height: 1.2; pointer-events: all; white-space: normal; overflow-wrap: normal;">MERN</div></div></div></foreignObject><text x="475" y="254" fill="rgb(0, 0, 0)" font-family="Helvetica" font-size="12px" text-anchor="middle">MERN</text></switch></g><rect x="380" y="330" width="70" height="40" fill="none" stroke="none" pointer-events="all"/><path d="M 380.05 329.81 L 449.5 330.32 L 448.11 368.69 L 379.25 368.33" fill="rgb(255, 255, 255)" stroke="none" pointer-events="all"/><path d="M 380 330 C 396.56 327.83 410.19 328.78 450 330 M 380 330 C 404.5 331.07 430.1 331.08 450 330 M 450 330 C 449.22 341.65 449.76 355.91 450 370 M 450 330 C 450.3 341.32 449.59 352.71 450 370 M 450 370 C 425.57 369.52 397.34 369.78 380 370 M 450 370 C 428.53 369.63 405.27 369.63 380 370 M 380 370 C 380.45 354.52 380.68 342.83 380 330 M 380 370 C 379.43 361.02 379.37 350.45 380 330" fill="none" stroke="rgb(0, 0, 0)" stroke-linejoin="round" stroke-linecap="round" stroke-miterlimit="10" pointer-events="all"/><g transform="translate(-0.5 -0.5)"><switch><foreignObject pointer-events="none" width="100%" height="100%" requiredFeatures="http://www.w3.org/TR/SVG11/feature#Extensibility" style="overflow: visible; text-align: left;"><div xmlns="http://www.w3.org/1999/xhtml" style="display: flex; align-items: unsafe center; justify-content: unsafe center; width: 68px; height: 1px; padding-top: 350px; margin-left: 381px;"><div data-drawio-colors="color: rgb(0, 0, 0); " style="box-sizing: border-box; font-size: 0px; text-align: center;"><div style="display: inline-block; font-size: 12px; font-family: Helvetica; color: rgb(0, 0, 0); line-height: 1.2; pointer-events: all; white-space: normal; overflow-wrap: normal;">博客重构</div></div></div></foreignObject><text x="415" y="354" fill="rgb(0, 0, 0)" font-family="Helvetica" font-size="12px" text-anchor="middle">博客重构</text></switch></g><rect x="660" y="190" width="70" height="40" fill="none" stroke="none" pointer-events="all"/><path d="M 659.88 190.14 C 659.88 190.14 659.88 190.14 659.88 190.14 M 659.88 190.14 C 659.88 190.14 659.88 190.14 659.88 190.14 M 660.27 195.78 C 662.32 194.73 662.42 192.23 665.52 189.74 M 660.27 195.78 C 662.36 193.94 663.46 191.5 665.52 189.74 M 660.01 202.18 C 664.01 197.3 668.59 193.18 670.51 190.1 M 660.01 202.18 C 663.13 198.94 665.22 194.9 670.51 190.1 M 659.75 208.58 C 666.3 202.13 670.97 194.57 676.15 189.71 M 659.75 208.58 C 662.74 204.42 666.81 201.34 676.15 189.71 M 660.15 214.22 C 666.28 205.89 677.67 194.74 681.14 190.07 M 660.15 214.22 C 667.08 206.1 675.7 196.4 681.14 190.07 M 659.88 220.62 C 667.32 211.93 670.09 208.81 686.78 189.68 M 659.88 220.62 C 665.18 214.27 671.99 206.91 686.78 189.68 M 660.28 226.26 C 668.79 219.08 675.52 207.36 691.77 190.04 M 660.28 226.26 C 669.31 213.89 679.89 202.69 691.77 190.04 M 661.33 231.15 C 676.23 216.84 686.23 201.95 697.41 189.64 M 661.33 231.15 C 671.47 219.01 682.78 206.4 697.41 189.64 M 666.32 231.51 C 679.35 219.73 687.86 205.79 702.4 190 M 666.32 231.51 C 674.21 221.59 683.24 210.3 702.4 190 M 671.96 231.12 C 683.21 216.49 697.05 203.35 707.39 190.36 M 671.96 231.12 C 678.46 222.19 687.53 213.86 707.39 190.36 M 676.95 231.48 C 687.09 221.42 693.67 210.25 713.03 189.97 M 676.95 231.48 C 687.82 219.07 699.02 205.37 713.03 189.97 M 682.59 231.08 C 695.57 214.54 710.07 197.92 718.02 190.33 M 682.59 231.08 C 690.38 221.6 698.7 213.75 718.02 190.33 M 687.58 231.44 C 702 217.21 714.35 199.67 723.66 189.93 M 687.58 231.44 C 699.54 218.75 709.84 204.39 723.66 189.93 M 693.22 231.05 C 705.71 217.17 718.46 198.83 728.65 190.29 M 693.22 231.05 C 707.24 215.68 720.85 199.99 728.65 190.29 M 698.21 231.41 C 706.8 223.59 711.31 213.47 732.32 192.16 M 698.21 231.41 C 709.23 218.6 719.94 205.22 732.32 192.16 M 703.85 231.01 C 715.51 217.51 727.17 202.99 732.72 197.8 M 703.85 231.01 C 710.52 222.39 719.2 214 732.72 197.8 M 708.84 231.37 C 714.81 221.6 723.91 214.89 732.45 204.2 M 708.84 231.37 C 715.98 223.25 722.66 215.34 732.45 204.2 M 714.48 230.98 C 720.88 221.03 728.95 214.18 732.19 210.6 M 714.48 230.98 C 718.57 226.28 724.32 220.35 732.19 210.6 M 719.47 231.34 C 722.15 225.14 729.73 220.97 732.59 216.24 M 719.47 231.34 C 724.01 225.47 727.83 221.35 732.59 216.24 M 725.11 230.94 C 728.19 227.74 730.72 225.72 732.33 222.64 M 725.11 230.94 C 727.33 228.63 728.92 226.66 732.33 222.64" fill="none" stroke="#fff2cc" stroke-linejoin="round" stroke-linecap="round" stroke-miterlimit="10" pointer-events="all"/><path d="M 660 190 C 674.27 190.88 689.55 192.23 730 190 M 660 190 C 680.97 188.66 701.8 189.09 730 190 M 730 190 C 728.69 196.81 730.95 207.21 730 230 M 730 190 C 728.9 198.88 729.98 207.86 730 230 M 730 230 C 709.74 230.63 690.86 229.89 660 230 M 730 230 C 715.29 230.19 702.35 229.96 660 230 M 660 230 C 662.02 219.22 659.3 211.89 660 190 M 660 230 C 660.77 216.74 659.05 201.72 660 190" fill="none" stroke="#d6b656" stroke-linejoin="round" stroke-linecap="round" stroke-miterlimit="10" pointer-events="all"/><g transform="translate(-0.5 -0.5)"><switch><foreignObject pointer-events="none" width="100%" height="100%" requiredFeatures="http://www.w3.org/TR/SVG11/feature#Extensibility" style="overflow: visible; text-align: left;"><div xmlns="http://www.w3.org/1999/xhtml" style="display: flex; align-items: unsafe center; justify-content: unsafe center; width: 68px; height: 1px; padding-top: 210px; margin-left: 661px;"><div data-drawio-colors="color: rgb(0, 0, 0); " style="box-sizing: border-box; font-size: 0px; text-align: center;"><div style="display: inline-block; font-size: 12px; font-family: Helvetica; color: rgb(0, 0, 0); line-height: 1.2; pointer-events: all; white-space: normal; overflow-wrap: normal;">......</div></div></div></foreignObject><text x="695" y="214" fill="rgb(0, 0, 0)" font-family="Helvetica" font-size="12px" text-anchor="middle">......</text></switch></g><rect x="50" y="0" width="70" height="40" fill="none" stroke="none" pointer-events="all"/><path d="M 49.75 0.29 C 49.75 0.29 49.75 0.29 49.75 0.29 M 49.75 0.29 C 49.75 0.29 49.75 0.29 49.75 0.29 M 50.14 5.93 C 51.67 3.62 54.25 1.64 55.39 -0.11 M 50.14 5.93 C 51.75 4.29 53.06 2.21 55.39 -0.11 M 49.88 12.33 C 52.52 9.15 56.92 5.48 60.38 0.25 M 49.88 12.33 C 52.57 9.01 55.2 6.16 60.38 0.25 M 50.28 17.97 C 56.39 13.17 62.87 5.15 66.02 -0.14 M 50.28 17.97 C 55.71 11.35 62.04 4.48 66.02 -0.14 M 50.02 24.37 C 56.65 17 61.95 12.16 71.01 0.22 M 50.02 24.37 C 55.79 18.9 60.25 11.13 71.01 0.22 M 49.75 30.77 C 58.32 19.74 68.75 7.36 76.65 -0.17 M 49.75 30.77 C 55.78 23.23 62.45 16.51 76.65 -0.17 M 50.15 36.41 C 56.74 27.61 62.82 21.88 81.64 0.19 M 50.15 36.41 C 60.93 24.85 69.64 12.68 81.64 0.19 M 51.2 41.3 C 63.76 28.14 75.11 16.5 87.28 -0.21 M 51.2 41.3 C 61.37 28.47 71.08 18.25 87.28 -0.21 M 56.84 40.91 C 68.38 26.51 82.41 11.37 92.27 0.15 M 56.84 40.91 C 68.11 27.24 80.66 15.4 92.27 0.15 M 61.83 41.27 C 67.63 32.69 78.14 24.85 97.91 -0.24 M 61.83 41.27 C 69.68 31.3 80.07 20.87 97.91 -0.24 M 67.47 40.87 C 78.42 27.58 86.74 15.71 102.9 0.12 M 67.47 40.87 C 80.67 26.56 93.09 11.38 102.9 0.12 M 72.46 41.23 C 83.48 29.6 94.79 18.18 108.54 -0.28 M 72.46 41.23 C 83.51 27.26 95.4 13.94 108.54 -0.28 M 78.1 40.84 C 87.73 27.95 100.7 17.12 113.53 0.08 M 78.1 40.84 C 88.98 27.77 99.08 17.25 113.53 0.08 M 83.09 41.2 C 95.11 26.7 108.4 8.6 119.17 -0.31 M 83.09 41.2 C 93.03 30.36 102.77 19.92 119.17 -0.31 M 88.73 40.8 C 97.04 31.83 105.55 23.14 122.19 2.31 M 88.73 40.8 C 99.11 28.2 107.58 16.98 122.19 2.31 M 93.72 41.16 C 103.3 31.2 110.53 20.31 122.59 7.95 M 93.72 41.16 C 101.64 31.69 111.97 21.28 122.59 7.95 M 98.71 41.52 C 107.57 33.87 111.35 25.47 122.32 14.35 M 98.71 41.52 C 107.26 31.95 114.33 24.44 122.32 14.35 M 104.35 41.13 C 112.5 33.2 115.37 27.02 122.72 20 M 104.35 41.13 C 110.76 32.57 118.4 24.2 122.72 20 M 109.34 41.49 C 115.43 34.34 118.13 31.55 122.46 26.39 M 109.34 41.49 C 114.2 36.2 117.39 32.03 122.46 26.39 M 114.98 41.09 C 118.05 36.85 119.74 34.67 122.2 32.79 M 114.98 41.09 C 117.88 37.74 119.63 34.9 122.2 32.79" fill="none" stroke="#fff2cc" stroke-linejoin="round" stroke-linecap="round" stroke-miterlimit="10" pointer-events="all"/><path d="M 50 0 C 63.13 -1 81.23 0.55 120 0 M 50 0 C 75.2 -0.15 100.65 -0.5 120 0 M 120 0 C 118.02 10.38 119.14 20.86 120 40 M 120 0 C 120.2 7.66 120.17 17.43 120 40 M 120 40 C 101.82 37.89 83.61 38.64 50 40 M 120 40 C 103.67 40.47 86.89 41.13 50 40 M 50 40 C 50 23.58 47.82 12.42 50 0 M 50 40 C 49.84 28.59 50.28 15.36 50 0" fill="none" stroke="#d6b656" stroke-linejoin="round" stroke-linecap="round" stroke-miterlimit="10" pointer-events="all"/><g transform="translate(-0.5 -0.5)"><switch><foreignObject pointer-events="none" width="100%" height="100%" requiredFeatures="http://www.w3.org/TR/SVG11/feature#Extensibility" style="overflow: visible; text-align: left;"><div xmlns="http://www.w3.org/1999/xhtml" style="display: flex; align-items: unsafe center; justify-content: unsafe center; width: 68px; height: 1px; padding-top: 20px; margin-left: 51px;"><div data-drawio-colors="color: rgb(0, 0, 0); " style="box-sizing: border-box; font-size: 0px; text-align: center;"><div style="display: inline-block; font-size: 12px; font-family: Helvetica; color: rgb(0, 0, 0); line-height: 1.2; pointer-events: all; white-space: normal; overflow-wrap: normal;">WORKING</div></div></div></foreignObject><text x="85" y="24" fill="rgb(0, 0, 0)" font-family="Helvetica" font-size="12px" text-anchor="middle">WORKING</text></switch></g><rect x="150" y="0" width="70" height="40" fill="none" stroke="none" pointer-events="all"/><path d="M 150.01 -0.01 C 150.01 -0.01 150.01 -0.01 150.01 -0.01 M 150.01 -0.01 C 150.01 -0.01 150.01 -0.01 150.01 -0.01 M 149.75 6.39 C 151.19 5.63 151.99 3.78 154.99 0.35 M 149.75 6.39 C 150.88 4.95 152.4 3.23 154.99 0.35 M 150.14 12.03 C 153.51 8.35 156.64 2.71 160.64 -0.04 M 150.14 12.03 C 152.17 8.83 155.32 5.58 160.64 -0.04 M 149.88 18.43 C 156.17 10.69 160.7 5.91 165.62 0.32 M 149.88 18.43 C 154.37 12.82 159.95 5.62 165.62 0.32 M 150.27 24.07 C 157.13 17.26 164.54 9.89 171.27 -0.08 M 150.27 24.07 C 159.09 14.43 165.6 5.76 171.27 -0.08 M 150.01 30.47 C 158.14 23.51 166.67 12.27 176.25 0.28 M 150.01 30.47 C 156.6 21.94 162.96 14.06 176.25 0.28 M 149.75 36.87 C 158.58 30.28 164.14 22.39 181.9 -0.11 M 149.75 36.87 C 159.77 23.87 170.82 12.49 181.9 -0.11 M 151.46 41 C 161.51 28.48 170.04 20.29 186.88 0.25 M 151.46 41 C 161.48 30.41 171.4 18.79 186.88 0.25 M 156.44 41.36 C 170.93 23.82 182.95 6.96 192.53 -0.15 M 156.44 41.36 C 170.7 26.18 185.17 9.31 192.53 -0.15 M 162.09 40.97 C 174.08 29.91 184.06 15.53 197.51 0.21 M 162.09 40.97 C 170.97 30.35 182.37 18.18 197.51 0.21 M 167.07 41.33 C 178.38 29.08 188.82 16.09 203.16 -0.18 M 167.07 41.33 C 175.87 30.85 184.77 21.94 203.16 -0.18 M 172.72 40.93 C 181.4 30.65 189.13 24.89 208.14 0.18 M 172.72 40.93 C 180.34 30.39 188.31 22.24 208.14 0.18 M 177.7 41.29 C 186.94 32.56 196.93 19.98 213.79 -0.22 M 177.7 41.29 C 187.87 30.14 196.15 19 213.79 -0.22 M 183.35 40.9 C 194.42 26.34 207.77 13.03 218.77 0.14 M 183.35 40.9 C 196.77 26.83 209.37 11.89 218.77 0.14 M 188.33 41.26 C 196.69 31.44 205.53 19.82 222.45 2.01 M 188.33 41.26 C 196.46 31.09 207.09 19.57 222.45 2.01 M 193.98 40.86 C 201.33 34.04 204 26.93 222.19 8.41 M 193.98 40.86 C 202.27 29.36 212.03 19.19 222.19 8.41 M 198.96 41.22 C 206.71 35.69 213.18 25.6 222.58 14.06 M 198.96 41.22 C 206.92 30.2 216.38 21.1 222.58 14.06 M 204.61 40.83 C 209.63 35.43 214.86 30.44 222.32 20.45 M 204.61 40.83 C 209.71 35.44 215.19 29.26 222.32 20.45 M 209.59 41.19 C 212.77 35.85 215.97 33.45 222.72 26.1 M 209.59 41.19 C 213.07 36.74 215.65 32.52 222.72 26.1 M 215.24 40.8 C 217.01 39.38 218.62 36.49 222.45 32.49 M 215.24 40.8 C 217.37 39.02 218.93 36.98 222.45 32.49" fill="none" stroke="#dae8fc" stroke-linejoin="round" stroke-linecap="round" stroke-miterlimit="10" pointer-events="all"/><path d="M 150 0 C 165.99 -1.48 178.91 0.27 220 0 M 150 0 C 167.44 -0.36 183.51 0.51 220 0 M 220 0 C 222.15 9.96 222.13 20.51 220 40 M 220 0 C 219.5 14.44 220.37 31 220 40 M 220 40 C 203.91 39.14 190.37 41.4 150 40 M 220 40 C 200.05 40.75 181.43 40.3 150 40 M 150 40 C 148.78 25.93 151.13 14.95 150 0 M 150 40 C 150.11 30.45 150.72 19 150 0" fill="none" stroke="#6c8ebf" stroke-linejoin="round" stroke-linecap="round" stroke-miterlimit="10" pointer-events="all"/><g transform="translate(-0.5 -0.5)"><switch><foreignObject pointer-events="none" width="100%" height="100%" requiredFeatures="http://www.w3.org/TR/SVG11/feature#Extensibility" style="overflow: visible; text-align: left;"><div xmlns="http://www.w3.org/1999/xhtml" style="display: flex; align-items: unsafe center; justify-content: unsafe center; width: 68px; height: 1px; padding-top: 20px; margin-left: 151px;"><div data-drawio-colors="color: rgb(0, 0, 0); " style="box-sizing: border-box; font-size: 0px; text-align: center;"><div style="display: inline-block; font-size: 12px; font-family: Helvetica; color: rgb(0, 0, 0); line-height: 1.2; pointer-events: all; white-space: normal; overflow-wrap: normal;">DONE</div></div></div></foreignObject><text x="185" y="24" fill="rgb(0, 0, 0)" font-family="Helvetica" font-size="12px" text-anchor="middle">DONE</text></switch></g><path d="M 510 190 L 489.88 224.5" fill="none" stroke="none" pointer-events="stroke"/><path d="M 487.23 229.03 L 487.73 221.22 L 489.88 224.5 L 493.78 224.75 Z" fill="none" stroke="none" pointer-events="all"/><path d="M 510 190 M 510 190 C 507.8 198.69 501.4 204.52 489.88 224.5 M 510 190 C 502.21 203.66 495.9 216.46 489.88 224.5" fill="none" stroke="rgb(0, 0, 0)" stroke-linejoin="round" stroke-linecap="round" stroke-miterlimit="10" pointer-events="stroke"/><path d="M 487.99 220.92 C 487.99 220.92 487.99 220.92 487.99 220.92 M 487.99 220.92 C 487.99 220.92 487.99 220.92 487.99 220.92 M 487.07 228.07 C 488.35 226.65 489.56 225.31 490.35 224.3 M 487.07 228.07 C 488.12 226.5 489.5 225.05 490.35 224.3" fill="none" stroke="rgb(0, 0, 0)" stroke-linejoin="round" stroke-linecap="round" stroke-miterlimit="10" pointer-events="all"/><path d="M 487.23 229.03 M 487.23 229.03 C 487.36 226.22 487.76 224.85 487.73 221.22 M 487.23 229.03 C 487.25 226.88 487.26 225.15 487.73 221.22 M 487.73 221.22 C 488.23 222.48 488.66 222.76 489.88 224.5 M 487.73 221.22 C 488.23 222.29 488.97 223.01 489.88 224.5 M 489.88 224.5 C 490.86 224.82 492.03 224.61 493.78 224.75 M 489.88 224.5 C 491.26 224.55 493.13 224.73 493.78 224.75 M 493.78 224.75 C 492.32 226.75 490.52 227.13 487.23 229.03 M 493.78 224.75 C 491.39 226.56 488.98 228.26 487.23 229.03" fill="none" stroke="rgb(0, 0, 0)" stroke-linejoin="round" stroke-linecap="round" stroke-miterlimit="10" pointer-events="all"/><g transform="translate(-0.5 -0.5)"><switch><foreignObject pointer-events="none" width="100%" height="100%" requiredFeatures="http://www.w3.org/TR/SVG11/feature#Extensibility" style="overflow: visible; text-align: left;"><div xmlns="http://www.w3.org/1999/xhtml" style="display: flex; align-items: unsafe center; justify-content: unsafe center; width: 1px; height: 1px; padding-top: 208px; margin-left: 498px;"><div data-drawio-colors="color: rgb(0, 0, 0); background-color: rgb(255, 255, 255); " style="box-sizing: border-box; font-size: 0px; text-align: center;"><div style="display: inline-block; font-size: 28px; font-family: Helvetica; color: rgb(0, 0, 0); line-height: 1.2; pointer-events: all; background-color: rgb(255, 255, 255); white-space: nowrap;"><font style="font-size: 12px">?</font></div></div></div></foreignObject><text x="498" y="217" fill="rgb(0, 0, 0)" font-family="Helvetica" font-size="28px" text-anchor="middle">?</text></switch></g><rect x="470" y="150" width="80" height="40" fill="none" stroke="none" pointer-events="all"/><path d="M 470.18 149.79 C 470.18 149.79 470.18 149.79 470.18 149.79 M 470.18 149.79 C 470.18 149.79 470.18 149.79 470.18 149.79 M 469.92 156.19 C 470.93 154.86 471.79 153.2 475.17 150.15 M 469.92 156.19 C 470.81 154.96 472.61 153.44 475.17 150.15 M 470.32 161.83 C 471.95 160.64 474.81 157.15 480.81 149.76 M 470.32 161.83 C 473.48 159.27 474.86 155.51 480.81 149.76 M 470.05 168.23 C 477.22 162.67 480.88 156.58 485.8 150.12 M 470.05 168.23 C 473.83 164.73 477.53 159.08 485.8 150.12 M 469.79 174.63 C 475.03 165.5 485.97 156.76 491.44 149.72 M 469.79 174.63 C 476.2 167.61 483.35 158.83 491.44 149.72 M 470.19 180.27 C 478.83 169.69 487 162.35 496.43 150.08 M 470.19 180.27 C 477.17 173 484.14 166.39 496.43 150.08 M 469.93 186.67 C 480.71 174.39 489.51 165.21 502.07 149.69 M 469.93 186.67 C 476.57 177.66 484.28 169.27 502.07 149.69 M 471.63 190.8 C 479.5 181.17 491.07 170.22 507.06 150.05 M 471.63 190.8 C 481.83 177.67 494.08 164.77 507.06 150.05 M 476.62 191.16 C 491.63 174.94 503.89 158.06 512.7 149.65 M 476.62 191.16 C 486.22 182.07 493.36 171.8 512.7 149.65 M 481.61 191.52 C 493.57 174.47 510.22 158.95 517.69 150.01 M 481.61 191.52 C 489.79 181.82 499.7 171.85 517.69 150.01 M 487.25 191.13 C 495.18 179.99 504.29 171.12 522.68 150.37 M 487.25 191.13 C 496.52 181.32 506.37 170.41 522.68 150.37 M 492.24 191.49 C 499.04 181.65 506.97 174.88 528.32 149.98 M 492.24 191.49 C 504.66 176.78 517.22 162.03 528.32 149.98 M 497.88 191.09 C 508.67 182.16 515.03 172.36 533.31 150.34 M 497.88 191.09 C 509.6 178.14 521.12 165.36 533.31 150.34 M 502.87 191.45 C 510.61 183 518.99 173.41 538.95 149.94 M 502.87 191.45 C 515.03 176.38 528.93 162.6 538.95 149.94 M 508.51 191.06 C 517.54 180.12 527.22 168.32 543.94 150.3 M 508.51 191.06 C 520.83 177.24 532.29 162.26 543.94 150.3 M 513.5 191.42 C 525.8 177.68 541.01 161.69 549.58 149.91 M 513.5 191.42 C 522.12 180.73 530.69 172.66 549.58 149.91 M 519.14 191.02 C 529.72 179.84 539.42 166.95 552.6 152.53 M 519.14 191.02 C 529.39 177.66 541.55 165.18 552.6 152.53 M 524.13 191.38 C 530.2 182.29 539.11 174.77 552.99 158.18 M 524.13 191.38 C 530.36 184.64 535.63 177.06 552.99 158.18 M 529.77 190.99 C 538.5 180.92 548.24 170.08 552.73 164.57 M 529.77 190.99 C 538.82 180.61 548.71 170.67 552.73 164.57 M 534.76 191.35 C 537.93 188.9 541.51 181.59 552.47 170.97 M 534.76 191.35 C 540.35 183.73 547.23 177.99 552.47 170.97 M 540.4 190.95 C 543.28 184.99 546.49 182.35 552.87 176.61 M 540.4 190.95 C 545.45 185.9 549.69 180.8 552.87 176.61 M 545.39 191.31 C 546.48 188.54 547.53 187.7 552.6 183.01 M 545.39 191.31 C 548.58 188.31 551.19 185.25 552.6 183.01" fill="none" stroke="#fff2cc" stroke-linejoin="round" stroke-linecap="round" stroke-miterlimit="10" pointer-events="all"/><path d="M 470 150 C 485.83 149.01 505.81 151.34 550 150 M 470 150 C 493.82 150.64 516.99 149.53 550 150 M 550 150 C 551.22 162.26 548.99 174.46 550 190 M 550 150 C 549.75 158.37 549.26 167.16 550 190 M 550 190 C 524.6 191.22 497.25 187.94 470 190 M 550 190 C 532.52 188.91 513.35 188.87 470 190 M 470 190 C 471.15 178 469.7 163.18 470 150 M 470 190 C 471.13 177.17 469.57 162.66 470 150" fill="none" stroke="#d6b656" stroke-linejoin="round" stroke-linecap="round" stroke-miterlimit="10" pointer-events="all"/><g transform="translate(-0.5 -0.5)"><switch><foreignObject pointer-events="none" width="100%" height="100%" requiredFeatures="http://www.w3.org/TR/SVG11/feature#Extensibility" style="overflow: visible; text-align: left;"><div xmlns="http://www.w3.org/1999/xhtml" style="display: flex; align-items: unsafe center; justify-content: unsafe center; width: 78px; height: 1px; padding-top: 170px; margin-left: 471px;"><div data-drawio-colors="color: rgb(0, 0, 0); " style="box-sizing: border-box; font-size: 0px; text-align: center;"><div style="display: inline-block; font-size: 12px; font-family: Helvetica; color: rgb(0, 0, 0); line-height: 1.2; pointer-events: all; white-space: normal; overflow-wrap: normal;">研究国外外包常用技术栈</div></div></div></foreignObject><text x="510" y="174" fill="rgb(0, 0, 0)" font-family="Helvetica" font-size="12px" text-anchor="middle">研究国外外包常用技术栈</text></switch></g><g transform="translate(-0.5 -0.5)"><switch><foreignObject pointer-events="none" width="100%" height="100%" requiredFeatures="http://www.w3.org/TR/SVG11/feature#Extensibility" style="overflow: visible; text-align: left;"><div xmlns="http://www.w3.org/1999/xhtml" style="display: flex; align-items: unsafe center; justify-content: unsafe center; width: 1px; height: 1px; padding-top: 210px; margin-left: 425px;"><div data-drawio-colors="color: rgb(0, 0, 0); background-color: rgb(255, 255, 255); " style="box-sizing: border-box; font-size: 0px; text-align: center;"><div style="display: inline-block; font-size: 28px; font-family: Helvetica; color: rgb(0, 0, 0); line-height: 1.2; pointer-events: all; background-color: rgb(255, 255, 255); white-space: nowrap;"><font style="font-size: 12px">?</font></div></div></div></foreignObject><text x="425" y="219" fill="rgb(0, 0, 0)" font-family="Helvetica" font-size="28px" text-anchor="middle">?</text></switch></g></g><switch><g requiredFeatures="http://www.w3.org/TR/SVG11/feature#Extensibility"/><a transform="translate(0,-5)" xlink:href="https://www.diagrams.net/doc/faq/svg-export-text-problems" target="_blank"><text text-anchor="middle" font-size="10px" x="50%" y="100%">Viewer does not support full SVG 1.1</text></a></switch></svg>